<?xml version="1.0" encoding="utf-8"?>
<!-- Generator: Adobe Illustrator 24.3.0, SVG Export Plug-In . SVG Version: 6.00 Build 0)  -->
<svg version="1.1" id="Layer_1" xmlns="http://www.w3.org/2000/svg" xmlns:xlink="http://www.w3.org/1999/xlink" x="0px" y="0px"
	 viewBox="0 0 626.1 717.4" style="enable-background:new 0 0 626.1 717.4;" xml:space="preserve">
<style type="text/css">
	.st0{fill:#CEB6B6;}
	.st1{opacity:0.43;fill:#F70059;stroke:#000000;stroke-width:3;stroke-miterlimit:10;}
	.st2{fill:#15003E;}
	.st3{fill:#FCFAFA;}
	.st4{fill:#FFFFFF;}
	.st5{fill:#25E899;}
	.st6{fill:#E87090;}
	.st7{fill:#EFF4EE;}
	.st8{fill:#F70059;}
	.st9{fill:#EA86E5;}
	.st10{opacity:0.43;fill:#F70059;}
	.st11{fill:#F70059;stroke:#0FCE7C;stroke-width:3;stroke-miterlimit:10;}
</style>
<polygon class="st0" points="558.9,500.5 558.9,215.2 313.1,72.6 67.4,215.2 67.4,500.5 313.1,643.1 "/>
<path class="st1" d="M136.7,535.5v36.3c5.9-0.9,11.8,0.2,17,3.1c23.2,13.4,46.9,26.6,64.3,47.4c1.9,2.3,3.5,4.8,4.8,7.5h183.7
	c2.5-3.5,4.9-7.1,7.5-10.5c5-6.7,9.5-12.4,16.6-17.2c8.3-5.5,17-6.1,26.6-4.6c0.2,0,0.5,0.1,0.7,0.2c3.3-3.1,6.7-6.1,10.1-9.1
	c2.9-2.6,6.2-4.5,9.9-5.8v-47.2H136.7z"/>
<g>
	
		<rect x="360.7" y="377.5" transform="matrix(0.9999 -1.425524e-02 1.425524e-02 0.9999 -5.4424 5.3552)" class="st2" width="24.5" height="13.9"/>
	<g id="Layer_8">
		<path class="st3" d="M294.5,458l-8,38.1c0.3,18.5,15.5,31.2,15.5,31.2c11.7,8.7,27.7,5.9,27.7,5.9c26-7.2,26.5-37.4,26.5-37.4
			l-9.6-36.9L294.5,458z"/>
	</g>
	<path class="st4" d="M360.2,383.8l0.4,28.4l-78.3,1.1l-0.4-28.4l0,0c-0.2-11.1,7.8-20.2,17.8-20.3l42.1-0.6
		C351.8,363.9,360,372.8,360.2,383.8z"/>
	<path class="st2" d="M361.7,383.8l0.4,28.4c0.1,0.9-0.6,1.7-1.5,1.7l-78.3,1.1c-0.9,0-1.6-0.8-1.5-1.7l-0.4-28.4
		c-0.2-12,8.5-21.9,19.3-22.1l42.1-0.6C352.6,362.2,361.5,371.8,361.7,383.8z M359.1,410.4l-0.4-26.6c-0.1-10.1-7.7-18.3-16.8-18.1
		l-42.1,0.6c-9.1,0.1-16.4,8.5-16.3,18.6l0.4,26.6L359.1,410.4z"/>
	<path class="st5" d="M360.3,390.5l-78.3,1.1"/>
	
		<rect x="282" y="389.4" transform="matrix(0.9999 -1.425524e-02 1.425524e-02 0.9999 -5.5419 4.6173)" class="st2" width="78.3" height="3.4"/>
	<path class="st2" d="M282,391.6l76.5-1.1l1.7-6.6l-4.2-12.5l-8.6-6.5l-25.5-1.7l-24.9,3.1l-6.8,0.8l-7.6,11.7L282,391.6L282,391.6z
		"/>
	<path class="st6" d="M328.7,389.8L328.7,389.8L328.7,389.8c-0.1-4.9-3.7-8.9-8.2-8.9s-8,4.1-8,9.1c0.1,5,3.7,8.9,8.2,8.9
		S328.8,394.8,328.7,389.8"/>
	<path class="st2" d="M330.3,389.8L330.3,389.8c0.1,5.9-4.1,10.7-9.5,10.8c-5.3,0.1-9.7-4.6-9.8-10.5c-0.1-5.9,4.1-10.7,9.5-10.8
		C325.9,379.2,330.2,383.9,330.3,389.8z M320.8,397.2c3.6-0.1,6.5-3.4,6.5-7.4l0,0c-0.1-4-3-7.2-6.7-7.2s-6.5,3.4-6.5,7.4
		C314.2,394.1,317.2,397.3,320.8,397.2z"/>
	<path class="st2" d="M291.9,363.9L291.9,363.9c0.1-2.3-1.7-4.2-4-4.3l0,0c-2.4-0.2-4.6,1.6-4.8,4c-0.2,2.4,1.6,4.6,4,4.8
		c2.4,0.2,4.6-1.6,4.8-4C291.9,364.2,291.9,364.1,291.9,363.9"/>
	<path class="st2" d="M359.4,368L359.4,368c0.1-2.3-1.7-4.2-4-4.3l0,0c-2.4-0.2-4.6,1.6-4.7,4c-0.2,2.4,1.6,4.6,4,4.7
		c2.4,0.2,4.6-1.6,4.7-4C359.4,368.2,359.4,368.1,359.4,368"/>
	<path class="st7" d="M355,371L355,371c0-1.4-1.1-2.6-2.5-2.7l0,0c-1.5-0.1-2.8,1-3,2.5c-0.1,1.5,1,2.8,2.5,3c1.5,0.1,2.8-1,3-2.5
		C355.1,371.2,355.1,371.1,355,371"/>
	<path class="st7" d="M291,371.9L291,371.9c0-1.4-1.1-2.6-2.5-2.7l0,0c-1.5-0.1-2.8,1-3,2.5c-0.1,1.5,1,2.8,2.5,3
		c1.5,0.1,2.8-1,3-2.5C291,372.1,291.1,372,291,371.9"/>
	<path class="st4" d="M256.7,320.2l20.4,29.2l0,0l0.3,0.5c2.1,3.3,1.4,7.5-1.5,9.5c-3,2-7.2,0.8-9.4-2.5L242,321.7l5.3-3.7
		C250.2,316,254.4,316.9,256.7,320.2z"/>
	<path class="st2" d="M257.9,319.3l20.4,29.2c0.1,0.2,0.2,0.3,0.3,0.5c2.7,4.1,1.9,9.3-1.9,11.7s-8.9,1-11.6-3.1l-24.5-35.1
		c-0.5-0.7-0.4-1.7,0.3-2.2l5.3-3.7C249.9,314.1,255.1,315.2,257.9,319.3z M267.8,355.9c1.5,2.2,4.5,2.9,6.9,1.6
		c2.3-1.6,2.9-4.9,1.2-7.2c0,0,0,0,0,0L255.4,321c-1.5-2.4-4.7-3.2-7.2-1.7l-4,2.8L267.8,355.9z"/>
	<path class="st2" d="M257.6,305.3l27.4,39.1c0.5,0.7,0.4,1.6-0.2,2.2c-0.7,0.5-1.6,0.4-2.2-0.2c-0.1-0.1-0.1-0.1-0.1-0.2L255.1,307
		c-0.5-0.7-0.4-1.6,0.2-2.2c0.7-0.5,1.6-0.4,2.2,0.2C257.5,305.1,257.5,305.2,257.6,305.3L257.6,305.3z"/>
	<path class="st4" d="M239.8,289.5c2.2-1.2,5-0.4,6.2,1.7c1.5,2,1,4.9-1,6.3c0,0,0,0,0,0l-9.8,6.8c-2.4,1.2-5.3,0.2-6.5-2.1
		c-1-1.9-0.6-4.2,1-5.7L239.8,289.5L239.8,289.5z"/>
	<path class="st2" d="M238.9,288.1c2.7-1.7,6.5-0.7,8.5,2.3c1.9,3,1.3,6.8-1.4,8.6l-9.8,6.8c-2.8,1.6-6.3,0.8-8.2-1.9
		c-2.2-2.9-1.8-6.8,0.7-8.7L238.9,288.1z M244,296.2c1.3-1.1,1.5-3.1,0.3-4.4c-1-1.1-2.6-1.4-3.9-0.7l-9.8,6.8
		c-1.3,1.1-1.5,3.1-0.3,4.4c1,1.1,2.6,1.4,3.9,0.7L244,296.2z"/>
	<path class="st4" d="M228.4,256.4c2.8-1.6,6.3-0.8,8.1,1.9c2.1,2.8,1.8,6.7-0.7,8.6L211.3,284c-2.8,1.6-6.3,0.8-8.1-1.9
		c-2.1-2.8-1.8-6.7,0.7-8.6L228.4,256.4L228.4,256.4z"/>
	<path class="st2" d="M227.4,255L227.4,255c3.3-2.3,8.1-1.2,10.6,2.5c2.5,3.7,2,8.5-1.3,10.8l-24.5,17.1c-3.3,2.3-8.1,1.2-10.6-2.5
		s-2-8.5,1.3-10.8L227.4,255z M234.8,265.5c1.9-1.5,2.3-4.4,0.8-6.3c-0.7-1-1.7-1.7-2.9-2c-1.1-0.3-2.3-0.1-3.2,0.6L205,274.9
		c-1.8,1.5-2.1,4.1-0.7,6c1.2,2.2,4,2.9,6.2,1.7L234.8,265.5z"/>
	
		<rect x="222.7" y="274.3" transform="matrix(0.8194 -0.5732 0.5732 0.8194 -121.9665 182.3733)" class="st4" width="11.5" height="20.8"/>
	<path class="st2" d="M226.2,271.5c0.8-0.5,1.7-0.2,2.2,0.5c0,0,0,0,0,0l11.9,17.1l0,0c0.5,0.7,0.4,1.7-0.3,2.3l-9.4,6.6
		c-0.8,0.5-1.7,0.2-2.2-0.5l-11.9-17.1l0,0c-0.5-0.7-0.4-1.7,0.3-2.3L226.2,271.5L226.2,271.5z M230,294.3l6.9-4.8l-10-14.3L220,280
		L230,294.3z"/>
	<path class="st2" d="M253.7,299.7c0.5,0.7,0.4,1.7-0.3,2.3l-16.9,11.8c-0.8,0.4-1.9,0.1-2.3-0.7c-0.4-0.7-0.2-1.5,0.4-2l16.9-11.8
		C252.2,298.7,253.2,299,253.7,299.7z"/>
	
		<rect x="201.9" y="266.1" transform="matrix(0.8194 -0.5732 0.5732 0.8194 -116.3482 167.3513)" class="st2" width="11.1" height="4.5"/>
	<path class="st2" d="M209.7,261.9c0.7-0.5,1.7-0.2,2.2,0.5l2.6,3.7l0,0c0.5,0.7,0.4,1.7-0.3,2.3l-9.1,6.4c-0.8,0.5-1.7,0.2-2.2-0.5
		l-2.6-3.7l0,0c-0.5-0.7-0.4-1.7,0.3-2.2c0,0,0,0,0,0L209.7,261.9L209.7,261.9z M204.4,271.1l6.6-4.6l-0.6-0.9l-6.6,4.6L204.4,271.1
		z"/>
	
		<rect x="215.6" y="256.4" transform="matrix(0.8194 -0.5732 0.5732 0.8194 -108.3319 173.5103)" class="st2" width="11.1" height="4.5"/>
	<path class="st2" d="M223.5,252.3c0.7-0.5,1.7-0.2,2.2,0.5c0,0,0,0,0,0l2.6,3.7l0,0c0.5,0.7,0.4,1.7-0.3,2.3l-9.1,6.4
		c-0.8,0.5-1.7,0.2-2.2-0.5l-2.6-3.7c-0.5-0.7-0.4-1.7,0.3-2.2L223.5,252.3z M218.2,261.4l6.6-4.6l-0.6-0.9l-6.6,4.6L218.2,261.4z"
		/>
	<path class="st2" d="M261.7,327.3l-10.6,7.4"/>
	
		<rect x="249.9" y="329.3" transform="matrix(0.8194 -0.5732 0.5732 0.8194 -143.431 206.7493)" class="st2" width="12.9" height="3.4"/>
	<path class="st2" d="M272.4,342.6l-10.6,7.4"/>
	
		<rect x="260.6" y="344.6" transform="matrix(0.8194 -0.5732 0.5732 0.8194 -150.2601 215.6378)" class="st2" width="12.9" height="3.4"/>
	
		<ellipse transform="matrix(0.8194 -0.5732 0.5732 0.8194 -134.4568 197.4019)" class="st4" cx="246" cy="312.1" rx="4.8" ry="5.4"/>
	<path class="st2" d="M251.3,308.4L251.3,308.4c2.2,3.2,1.7,7.4-1.2,9.5c-2.9,2-7,1-9.3-2.2c-2.2-3.2-1.7-7.4,1.2-9.4
		S249,305.2,251.3,308.4z M248.8,310.2L248.8,310.2c-1.2-1.4-3.3-1.5-4.7-0.3c-1.4,1.2-1.5,3.3-0.3,4.7c1.1,1.3,3,1.5,4.4,0.5
		C249.7,313.9,250,311.7,248.8,310.2C248.8,310.2,248.8,310.2,248.8,310.2L248.8,310.2z"/>
	<path class="st2" d="M238.9,299.7c0.8-0.5,1.7-0.2,2.2,0.5l3.9,5.5l0,0c0.5,0.7,0.4,1.6-0.2,2.2c-0.7,0.5-1.6,0.4-2.2-0.2
		c-0.1-0.1-0.1-0.1-0.1-0.2l-3.9-5.5l0,0C238.1,301.3,238.2,300.3,238.9,299.7C238.9,299.7,238.9,299.7,238.9,299.7z"/>
	<path class="st2" d="M286.1,348.4c0.9,0.2,1.5,1,1.4,1.9l-0.7,8.6c0,0.4-0.2,0.8-0.6,1l-6.3,4.7c-0.8,0.5-1.9,0.2-2.3-0.6
		c-0.4-0.7-0.3-1.6,0.3-2.1l5.8-4.4l0.7-7.9c0-0.4,0.2-0.8,0.6-1C285.2,348.4,285.7,348.3,286.1,348.4z"/>
	<path class="st4" d="M350.8,312.7l0.5,35.6c0,0.5,0,1.1,0,1.6c0.5,4,3.7,6.8,7.3,6.3c3.6-0.5,6.1-4.1,5.6-8.1l-0.6-42.8l-6.5,0.1
		C353.7,305.5,350.8,308.7,350.8,312.7z"/>
	<path class="st2" d="M365.2,305.3l0.6,43.4c-0.1,4.9-3.7,8.8-8.1,8.7c-4.4-0.1-7.9-4.2-7.8-9.1l-0.5-35.6c-0.1-4.9,3.5-8.9,7.9-9
		l6.5-0.1C364.5,303.7,365.2,304.4,365.2,305.3z M357.9,353.7L357.9,353.7c2.9-0.2,5-2.7,4.9-5.6l-0.6-41.1l-4.9,0.1
		c-2.9,0.2-5,2.7-4.9,5.5l0.5,35.6C352.8,351.2,355,353.6,357.9,353.7z"/>
	<path class="st2" d="M343.4,324.9c0.4,0,0.8,0.4,0.8,0.8l0.3,23.9l0,0c0,0.4-0.3,0.8-0.7,0.8c-0.4,0-0.8-0.3-0.8-0.7
		c0,0,0-0.1,0-0.1l-0.3-23.9C342.6,325.3,342.9,325,343.4,324.9L343.4,324.9z"/>
	<path class="st2" d="M351,321.4l12.9-0.2"/>
	
		<rect x="351" y="319.6" transform="matrix(0.9999 -1.425524e-02 1.425524e-02 0.9999 -4.5438 5.128)" class="st2" width="12.9" height="3.4"/>
	<path class="st2" d="M351.3,340l12.9-0.2"/>
	
		<rect x="351.2" y="338.3" transform="matrix(0.9999 -1.425524e-02 1.425524e-02 0.9999 -4.8096 5.1337)" class="st2" width="12.9" height="3.4"/>
	<g>
		<path class="st4" d="M332.5,325.1c2.5-0.9,3.8-3.6,3-6l-5.1-10.8c-1.2-2-3.9-2.7-6.1-1.7c-2.5,0.9-3.8,3.6-3,6l5.1,10.8
			C327.7,325.4,330.3,326.2,332.5,325.1z"/>
		<path class="st2" d="M319.8,313.4c-1.1-3,0.5-6.5,3.5-7.9c3.3-1.7,7.3-0.8,8.8,2.1l5.1,10.8c1.1,3-0.5,6.5-3.5,7.9
			c-3.3,1.7-7.3,0.8-8.8-2.1L319.8,313.4z M328.9,309.1c-0.9-1.5-2.9-1.9-4.4-1c-1.3,0.8-2,2.4-1.5,3.8l5.1,10.8
			c0.9,1.5,2.9,1.9,4.4,1c1.3-0.8,2-2.4,1.5-3.8L328.9,309.1z"/>
		<path class="st4" d="M306.9,349.8c3.4-1.5,5.2-5,4-8l-12.7-27c-1.6-2.7-5.2-3.7-8.2-2.3c-3.4,1.5-5.2,5-4,8l12.7,27
			C300.3,350.3,303.9,351.3,306.9,349.8z"/>
		<path class="st2" d="M284.2,320.9c-1.5-3.7,0.7-8.2,5-10.1c4.3-1.8,9.1-0.4,10.6,3.4l12.7,27c1.5,3.5-0.5,7.8-4.5,9.8
			c-4.2,2.1-9.1,1-11-2.6L284.2,320.9z M296.6,315.6c-1.2-2-3.8-2.7-6-1.7c-2.4,0.9-3.8,3.5-3,5.9l12.7,27c1.5,2.2,4.5,2.7,6.9,1.2
			c1.9-1.2,2.7-3.4,2.1-5.4L296.6,315.6z"/>
		
			<rect x="302.9" y="316.7" transform="matrix(0.9051 -0.4251 0.4251 0.9051 -107.301 164.0181)" class="st4" width="21.9" height="11.5"/>
		<path class="st2" d="M300.9,320.5l19.8-9.3l0,0c0.8-0.4,1.8-0.2,2.2,0.6c0,0,0,0,0,0l4.9,10.4c0.3,0.8-0.1,1.8-1,2.1l-19.8,9.3
			c-0.8,0.4-1.8,0.2-2.3-0.6l-4.9-10.4C299.6,321.8,300,320.9,300.9,320.5z M324,322.4l-3.6-7.6l-16.6,7.8l3.6,7.6L324,322.4z"/>
		<path class="st2" d="M334.4,300c0.8-0.4,1.8-0.2,2.3,0.6l8.7,18.6c0.3,0.9-0.2,1.9-1.1,2.2c-0.8,0.3-1.7,0-2.1-0.7l-8.8-18.6
			C333.1,301.3,333.5,300.4,334.4,300z"/>
		
			<rect x="284" y="321.2" transform="matrix(0.9051 -0.4251 0.4251 0.9051 -111.7575 152.712)" class="st2" width="4.7" height="11.1"/>
		<path class="st2" d="M281.2,321.4l4.3-2l0,0c0.8-0.4,1.8-0.2,2.3,0.6l4.7,10c0.3,0.8-0.1,1.8-1,2.1l-4.3,2
			c-0.8,0.4-1.8,0.2-2.3-0.6l-4.7-10C279.9,322.7,280.3,321.7,281.2,321.4z M288.6,330.2l-3.4-7.2l-1.1,0.5l3.4,7.2L288.6,330.2z"/>
		
			<rect x="291.1" y="336.5" transform="matrix(0.9051 -0.4251 0.4251 0.9051 -117.5477 157.1929)" class="st2" width="4.7" height="11.1"/>
		<path class="st2" d="M288.3,336.6l4.3-2l0,0c0.8-0.4,1.8-0.2,2.3,0.6c0,0,0,0,0,0l4.7,10c0.3,0.8-0.1,1.8-1,2.1l-4.3,2l0,0
			c-0.8,0.4-1.8,0.2-2.3-0.6l-4.7-10C287,338,287.5,337,288.3,336.6z M295.7,345.4l-3.4-7.2l-1.1,0.5l3.4,7.2L295.7,345.4z"/>
		
			<ellipse transform="matrix(0.9051 -0.4251 0.4251 0.9051 -97.7684 175.4499)" class="st4" cx="344.3" cy="306.8" rx="5.6" ry="4.8"/>
		<path class="st2" d="M337.5,310c-1.5-3.2,0.3-7.2,4-8.9s7.9-0.6,9.4,2.6c1.5,3.2-0.3,7.2-4,8.9S339,313.2,337.5,310z M347.8,305.2
			L347.8,305.2c-0.7-1.9-2.9-2.9-4.9-2.2c-2,0.7-3.1,2.9-2.5,4.8c0.7,1.9,2.9,2.9,4.9,2.2c0.1,0,0.2-0.1,0.4-0.2
			C347.6,309.1,348.5,307,347.8,305.2C347.8,305.2,347.8,305.2,347.8,305.2z"/>
		<path class="st2" d="M331.3,314.3c-0.3-0.8,0.1-1.8,1-2.1l6.4-3c0.8-0.3,1.7-0.1,2.1,0.6c0.4,0.8,0.1,1.8-0.8,2.2c0,0,0,0,0,0
			l-6.4,3C332.7,315.3,331.7,315,331.3,314.3z"/>
	</g>
	<path class="st2" d="M347.7,353l5.4,5.9l7.2-0.1c0.8,0.1,1.4,0.8,1.4,1.5c0.1,0.9-0.5,1.7-1.4,1.8l-7.9,0.1c-0.4,0-0.8-0.2-1.1-0.5
		l-5.9-6.3c-0.3-0.3-0.5-0.7-0.5-1.2c-0.1-0.9,0.6-1.7,1.5-1.7C347,352.6,347.4,352.7,347.7,353z"/>
	
		<rect x="258.3" y="378.9" transform="matrix(0.9999 -1.425524e-02 1.425524e-02 0.9999 -5.4736 3.8956)" class="st2" width="24.5" height="13.9"/>
	<path class="st5" d="M259.8,385.2l-17.5,1.1"/>
	<path class="st2" d="M242.3,385.2l17.4-1.1c0.1,0,0.1,0,0.2,0c0.6,0,1.1,0.4,1.1,1c0,0,0,0,0,0c-0.1,0.6-0.6,1-1.1,1l-17.4,1.1l0,0
		c-0.5,0.1-1.1-0.3-1.2-0.8c-0.1-0.5,0.3-1.1,0.8-1.2C242.1,385.2,242.2,385.2,242.3,385.2L242.3,385.2z"/>
	<path class="st2" d="M213.6,388l-15.7,0.9"/>
	<path class="st2" d="M197.8,387.9l15.7-0.9c0.5,0,1,0.3,1.1,0.9c0.1,0.6-0.4,1.1-0.9,1.1c0,0,0,0,0,0l-15.7,0.9l0,0
		c-0.5,0.1-1.1-0.3-1.2-0.8c-0.1-0.5,0.3-1.1,0.8-1.2C197.7,387.9,197.8,387.9,197.8,387.9z"/>
	<path class="st4" d="M208.2,380l45.1-2.7l0,0c3.4-0.2,6.2,2.1,6.4,5.1l0.3,5.7c0.2,3-2.4,5.6-5.7,5.8l-45.1,2.7l0,0
		c-3.4,0.2-6.2-2.1-6.4-5.1l-0.3-5.7C202.3,382.7,204.8,380.2,208.2,380z"/>
	<path class="st2" d="M208.1,378.9l45.1-2.7c4-0.2,7.4,2.5,7.6,6l0.3,5.7c0.2,3.6-2.8,6.6-6.8,6.9l-45.1,2.7c-4,0.2-7.4-2.5-7.6-6
		l-0.3-5.7C201.1,382.3,204.2,379.2,208.1,378.9z M258.5,382.4c-0.1-2.5-2.5-4.3-5.2-4.2l-45.1,2.7c-2.7,0.2-4.8,2.3-4.7,4.8
		l0.3,5.7c0.1,2.5,2.5,4.3,5.2,4.2l45.1-2.7c2.7-0.2,4.8-2.3,4.7-4.8L258.5,382.4z"/>
	<path class="st6" d="M213.3,383.6L213.3,383.6L213.3,383.6c-2.7,0.2-4.7,2.3-4.6,4.7l0,0c0.1,2.4,2.5,4.3,5.2,4.1
		c2.7-0.2,4.8-2.3,4.6-4.7C218.4,385.2,216,383.4,213.3,383.6"/>
	<path class="st2" d="M213.2,382.6L213.2,382.6c3.3-0.2,6.1,2.1,6.3,5c0.2,3-2.4,5.6-5.7,5.8c-3.3,0.2-6.1-2.1-6.3-5
		S209.9,382.8,213.2,382.6z M213.4,384.6L213.4,384.6c-1.9,0.3-3.1,2.1-2.8,4c0.3,1.9,2.1,3.1,4,2.8c1.7-0.3,3-1.8,2.9-3.6
		C217.1,385.8,215.3,384.3,213.4,384.6L213.4,384.6z"/>
	<path class="st2" d="M240.8,378c0-0.6,0.6-1.1,1.2-1.1c0.5,0,1,0.4,1,0.9l1,16.7c0,0.6-0.6,1.1-1.2,1.1c-0.5,0-1-0.4-1-0.9
		L240.8,378z"/>
	<path class="st2" d="M229.6,378.7c0-0.6,0.6-1.1,1.2-1c0.5,0,0.9,0.4,1,0.9l1,16.7c0,0.6-0.5,1.1-1.1,1.1c-0.5,0-1-0.4-1.1-1
		L229.6,378.7z"/>
	<path class="st7" d="M182.5,385.9l12.1-0.7c1.6-0.2,3.1,1,3.2,2.6l0.1,2.4c0,1.6-1.3,2.9-2.9,2.9l-12.1,0.7"/>
	<path class="st2" d="M181.4,386c0-0.6,0.5-1.1,1-1.1l12.1-0.7c2.3-0.1,4.3,1.4,4.4,3.5l0.1,2.3c0.1,2.1-1.6,3.9-3.9,4l-12.1,0.7
		l0,0c-0.5,0.1-1.1-0.3-1.1-0.9s0.3-1.1,0.9-1.1c0.1,0,0.1,0,0.2,0l12.1-0.7l0,0c1,0,1.9-0.9,1.9-1.9l-0.1-2.3c-0.1-1-1-1.8-2.1-1.7
		l-12.1,0.7l0,0C182,387,181.4,386.5,181.4,386L181.4,386z"/>
	<path class="st6" d="M182.5,385.9c-2.4,0.1-4.3,2-4.1,4.2l0,0c0.1,2.2,2.2,3.8,4.6,3.7c2.4-0.1,4.3-2,4.1-4.2
		C187,387.4,184.9,385.8,182.5,385.9"/>
	<path class="st2" d="M182.4,384.9c3-0.2,5.6,1.9,5.8,4.6s-2.2,5.1-5.2,5.3c-3,0.2-5.6-1.9-5.8-4.6
		C177.1,387.4,179.4,385.1,182.4,384.9z M186,389.6c-0.2-1.7-1.7-2.9-3.4-2.7l0,0c-1.6,0.3-2.7,1.8-2.4,3.4c0.3,1.6,1.8,2.7,3.4,2.4
		C185,392.5,186.1,391.1,186,389.6z"/>
	<path class="st5" d="M399.3,385.2l-17.5-1.1"/>
	<path class="st2" d="M399.3,384.2c0.1,0,0.2,0,0.2,0c0.5,0.1,0.9,0.6,0.8,1.2c-0.1,0.5-0.6,0.9-1.2,0.8l0,0l-17.4-1.1
		c-0.6,0-1.1-0.4-1.1-1c0,0,0,0,0,0c0-0.6,0.5-1,1.1-1c0.1,0,0.1,0,0.2,0L399.3,384.2L399.3,384.2z"/>
	<path class="st2" d="M443.7,387.9L428,387"/>
	<path class="st2" d="M444,386.9c0.5,0.1,0.9,0.6,0.8,1.2c-0.1,0.5-0.6,0.9-1.2,0.8l0,0L428,388c0,0,0,0,0,0c-0.6-0.1-1-0.6-0.9-1.1
		c0.1-0.5,0.6-0.9,1.1-0.9l15.7,0.9C443.8,386.9,443.9,386.9,444,386.9z"/>
	<path class="st4" d="M439.1,384.8l-0.3,5.7c-0.2,3-3,5.3-6.4,5.1l0,0l-45.1-2.7c-3.4-0.2-5.9-2.8-5.7-5.8l0.3-5.7
		c0.2-3,3-5.3,6.4-5.1l0,0l45.1,2.7C436.8,379.2,439.3,381.7,439.1,384.8z"/>
	<path class="st2" d="M440.3,384.8l-0.3,5.7c-0.2,3.6-3.6,6.3-7.6,6l-45.1-2.7c-4-0.2-7-3.3-6.8-6.9l0.3-5.7c0.2-3.6,3.6-6.3,7.6-6
		l45.1,2.7C437.4,378.2,440.5,381.3,440.3,384.8z M382.7,387.1c-0.1,2.5,1.9,4.6,4.7,4.8l45.1,2.7c2.7,0.2,5.1-1.7,5.2-4.2l0.3-5.7
		c0.1-2.5-1.9-4.6-4.7-4.8l-45.1-2.7c-2.7-0.2-5.1,1.7-5.2,4.2L382.7,387.1z"/>
	<path class="st6" d="M428.3,382.6c-2.7-0.2-5,1.7-5.2,4.1c-0.1,2.5,1.9,4.5,4.6,4.7c2.7,0.2,5-1.7,5.2-4.1l0,0
		C433,384.8,431,382.7,428.3,382.6L428.3,382.6L428.3,382.6"/>
	<path class="st2" d="M434,387.3c-0.2,3-3,5.2-6.3,5c-3.3-0.2-5.9-2.8-5.7-5.8c0.2-3,3-5.2,6.3-5l0,0
		C431.7,381.8,434.2,384.3,434,387.3z M428.2,383.6c-2-0.2-3.8,1.2-4,3.2c-0.1,1.8,1.1,3.3,2.9,3.6c1.9,0.3,3.6-0.9,4-2.8
		C431.4,385.6,430.1,383.9,428.2,383.6L428.2,383.6L428.2,383.6z"/>
	<path class="st2" d="M399.8,393.6c-0.1,0.5-0.5,0.9-1,0.9c-0.6,0-1.1-0.4-1.2-1.1l1-16.7c0.1-0.5,0.5-0.9,1-0.9
		c0.6,0,1.1,0.4,1.2,1.1L399.8,393.6z"/>
	<path class="st2" d="M411,394.3c-0.1,0.5-0.5,1-1.1,1c-0.6,0-1.1-0.5-1.1-1.1l1-16.7c0.1-0.5,0.5-0.9,1-0.9c0.6,0,1.2,0.4,1.2,1
		L411,394.3z"/>
	<path class="st7" d="M458.6,392.8l-12.1-0.7c-1.6,0-2.9-1.3-2.9-2.9l0.1-2.4c0.2-1.6,1.6-2.8,3.2-2.6l12.1,0.7"/>
	<path class="st2" d="M460.2,385c-0.1,0.6-0.6,1-1.2,0.9l0,0l-12.1-0.7c-1-0.1-2,0.6-2.1,1.7l-0.1,2.3c0,1,0.8,1.9,1.9,1.9l0,0
		l12.1,0.7c0.1,0,0.1,0,0.2,0c0.5,0.1,0.9,0.6,0.9,1.1s-0.6,0.9-1.1,0.9l0,0l-12.1-0.7c-2.3-0.1-4.1-1.9-3.9-4l0.1-2.3
		c0.1-2.1,2.1-3.7,4.4-3.5l12.1,0.7C459.8,383.9,460.2,384.4,460.2,385L460.2,385z"/>
	<path class="st6" d="M459.1,384.9c-2.4-0.1-4.5,1.5-4.6,3.7c-0.1,2.2,1.7,4,4.1,4.2c2.4,0.1,4.5-1.5,4.6-3.7l0,0
		C463.4,386.9,461.5,385.1,459.1,384.9"/>
	<path class="st2" d="M464.4,389.2c-0.2,2.7-2.7,4.8-5.8,4.6c-3-0.2-5.3-2.5-5.2-5.3s2.8-4.8,5.8-4.6
		C462.2,384.1,464.5,386.4,464.4,389.2z M458.1,391.7c1.6,0.3,3.1-0.8,3.4-2.4s-0.8-3.1-2.4-3.4l0,0c-1.7-0.2-3.2,1-3.4,2.7
		C455.5,390.1,456.6,391.5,458.1,391.7z"/>
	
		<rect x="292.5" y="412.7" transform="matrix(0.9999 -1.425524e-02 1.425524e-02 0.9999 -5.9503 4.6086)" class="st4" width="55.7" height="13.9"/>
	<path class="st2" d="M349.8,428l-58.7,0.8l-0.2-17.3l58.7-0.8L349.8,428z M294.1,425.4l52.6-0.8l-0.1-10.5l-52.6,0.8L294.1,425.4z"
		/>
	<path class="st2" d="M344.1,433.2c0.1,0.9-0.6,1.7-1.5,1.7l-43.4,0.6c-0.9-0.1-1.6-0.9-1.6-1.8c0.1-0.8,0.7-1.5,1.5-1.6l43.4-0.6
		C343.5,431.6,344.1,432.4,344.1,433.2z"/>
	<path class="st6" d="M294.6,458l52.3-0.7l3.7,13.8l-4.6,2.1l-54.6,0.8L294.6,458z"/>
	<path class="st7" d="M346.8,448.3l0.1,8.9l-52.3,0.7l-0.1-8.9c-0.1-4.5,3.2-8.2,7.3-8.3l37.5-0.5
		C343.4,440.2,346.7,443.8,346.8,448.3z"/>
	<path class="st2" d="M339.3,438.5c4.9-0.1,9,4.3,9,9.8l0.2,10.6l-55.4,0.8l-0.2-10.6c-0.1-5.5,3.9-9.9,8.8-10L339.3,438.5z
		 M345.4,455.5l-0.1-7.2c-0.1-3.6-2.7-6.5-6-6.4l-37.5,0.5c-3.2,0-5.8,3-5.8,6.6l0.1,7.2L345.4,455.5z"/>
	<path class="st6" d="M330.2,473.2c2.3,1.1,4.3,2.5,6.1,4.2c9.8,9.3,10.9,25.7,2.5,36.5c-4.2,5.4-31.1,5.4-35.5-0.2
		c-1.4-1.8-2.6-3.8-3.5-6c-5.4-13-0.2-28.4,11.5-34.3"/>
	<path class="st2" d="M309.9,471.8c0.6,0,1.2,0.4,1.4,1c0.4,0.8,0.1,1.8-0.7,2.3c-11.3,6.3-15.8,21.6-10.1,34.1
		c0.4,0.9,0.8,1.7,1.3,2.5c0.5,0.8,0.3,1.8-0.4,2.3c-0.7,0.5-1.6,0.3-2-0.3c0,0-0.1-0.1-0.1-0.2c-0.6-0.9-1.1-1.9-1.5-2.9
		c-6.4-14.2-1.3-31.5,11.5-38.6C309.5,472,309.7,471.9,309.9,471.8L309.9,471.8z"/>
	<path class="st2" d="M332.2,471.8c1.3,0.7,2.6,1.5,3.8,2.5c11.7,9.2,14.4,27.2,6.2,40.1c-0.4,0.7-1.3,0.9-2,0.5
		c-0.1,0-0.1-0.1-0.2-0.1c-0.7-0.6-0.8-1.6-0.4-2.4c7.3-11.4,4.9-27.3-5.4-35.4c-1-0.8-2.1-1.6-3.3-2.2c-0.5-0.3-0.9-0.9-0.9-1.5
		c0-0.9,0.6-1.6,1.5-1.7C331.7,471.6,332,471.7,332.2,471.8z"/>
	<path class="st2" d="M357.6,494.1l0,0.5c0.3,22.2-15.7,40.4-35.7,40.7c-20,0.3-36.5-17.5-36.8-39.7l0-0.2l8.4-39l54.7-0.8
		L357.6,494.1z M288.1,495.7c0.6,19.9,15.3,35.7,33.2,35.8c18.3,0.1,33.2-16.4,33.2-36.7l-8.7-35.8l-50,0.7L288.1,495.7z"/>
	<path class="st2" d="M289,477.9L289,477.9c0.9,0.1,1.6,0.9,1.5,1.9c-0.1,0.8-0.7,1.4-1.5,1.5l-3.6,0.1c-2.2,0.1-3.8,2-3.7,4.2
		l0.2,14.8c0,2.2,1.6,4,3.8,4.1l1.5,0c0.9,0.1,1.6,1,1.4,2c-0.1,0.7-0.7,1.3-1.4,1.4l-1.5,0c-3.7,0.1-6.8-3.3-6.9-7.4l-0.2-14.9
		c-0.1-4.2,2.9-7.6,6.7-7.6L289,477.9L289,477.9z"/>
	<path class="st2" d="M363.7,484.3l0.2,14.9c0.1,4.2-2.9,7.6-6.7,7.6l-1.5,0c-0.8-0.1-1.4-0.7-1.4-1.5c-0.1-0.9,0.5-1.7,1.4-1.8
		l1.5,0c2.1-0.2,3.8-2,3.7-4.2l-0.2-14.9c0.1-2.2-1.6-4-3.8-4.1l-3.6,0.1c-0.8-0.1-1.4-0.7-1.4-1.5c-0.1-0.9,0.5-1.7,1.4-1.8
		l3.6-0.1C360.6,476.8,363.6,480.2,363.7,484.3z"/>
	<path class="st2" d="M288.2,500.8c18.2,20.4,47.8,20.6,66.2,0.6l0.1-0.1c0.5-0.6,1.4-0.6,2,0c0.1,0.1,0.1,0.1,0.2,0.2
		c0.6,0.7,0.5,1.7-0.1,2.4c-19.6,21.3-51.1,21-70.5-0.7l0,0c-0.6-0.7-0.6-1.7,0-2.4c0.3-0.3,0.7-0.5,1.1-0.5
		C287.5,500.3,287.9,500.4,288.2,500.8z"/>
	<path class="st2" d="M352.1,472.8c0.1,0.9-0.5,1.7-1.4,1.8l-59.2,0.8c-0.8-0.1-1.4-0.8-1.4-1.5c-0.1-0.9,0.5-1.7,1.4-1.8l59.2-0.8
		C351.4,471.4,352,472,352.1,472.8z"/>
	<path class="st4" d="M333.7,505.5L333.7,505.5c0.1,3.7-2.6,6.8-6,6.8l0,0c-3.4,0-6.1-2.9-6.2-6.7c-0.1-3.8,2.6-6.8,6-6.8
		C330.8,498.8,333.6,501.7,333.7,505.5"/>
	<path class="st4" d="M337.8,495.4c0.1,1.4-1,2.7-2.4,2.8l0,0c-1.5,0.2-2.9-0.9-3.1-2.4c-0.2-1.5,0.9-2.9,2.4-3.1
		c1.5-0.2,2.9,0.9,3.1,2.4C337.8,495.2,337.8,495.3,337.8,495.4"/>
	<path class="st2" d="M341.9,461L341.9,461c0.9,0.1,1.6,1,1.5,1.9c-0.1,0.8-0.7,1.4-1.4,1.5c-0.6,0-1,0.5-1.7,1.8
		c-0.7,1.2-2,3.3-4.2,3.4c-2.3,0-3.5-1.9-4.3-3.2c-0.8-1.3-1.1-1.7-1.8-1.7s-1,0.5-1.7,1.8c-0.7,1.3-2,3.3-4.2,3.4
		c-2.3,0-3.5-1.9-4.3-3.2c-0.8-1.3-1.2-1.7-1.8-1.7c-0.6,0-1,0.5-1.7,1.8c-0.7,1.3-1.9,3.3-4.2,3.4c-2.3,0-3.5-1.9-4.3-3.2
		c-0.8-1.4-1.1-1.7-1.7-1.7s-0.9,0.4-1.7,1.8c-0.8,1.4-1.9,3.3-4.2,3.3c-0.8-0.1-1.4-0.7-1.4-1.5c-0.1-0.9,0.5-1.7,1.4-1.8
		c0.6,0,0.9-0.4,1.7-1.8c0.8-1.4,2-3.3,4.2-3.3c2.3,0,3.5,1.9,4.3,3.2c0.8,1.3,1.1,1.8,1.8,1.7c0.6,0,0.9-0.4,1.7-1.8
		c0.8-1.4,2-3.3,4.2-3.3c2.3,0,3.5,2,4.3,3.2c0.8,1.3,1.1,1.7,1.7,1.7s0.9-0.4,1.7-1.8c0.8-1.4,1.9-3.3,4.2-3.3c2.3,0,3.5,2,4.3,3.2
		c0.8,1.3,1.1,1.7,1.7,1.7c0.6,0,0.9-0.4,1.7-1.8C338.4,462.9,339.5,461,341.9,461L341.9,461z"/>
</g>
<path class="st8" d="M313.1,15.7l-297,171.5v343l297,171.5l297-171.5v-343L313.1,15.7z M558.9,500.6L313.2,642.5L67.4,500.6V216.9
	l245.8-142l245.7,142V500.6z"/>
<path class="st9" d="M313.1,74.9L67.3,216.8v283.8l245.8,141.9l245.7-141.9V216.8L313.1,74.9z M546.5,493.5L313.1,628.2L79.7,493.5
	V224L313.1,89.2L546.5,224V493.5z"/>
<path class="st10" d="M148.1,244.5c-1.9,3.9-4.5,7.3-7.5,10.3c-4.2,4.2-9,7.8-14.1,10.9c-0.4,0.3-0.8,0.5-1.3,0.8
	c-0.3,0.2-0.6,0.2-1,0c-4.1-2.5-8.1-5.3-11.8-8.4c-3.5-3-6.6-6.2-9.1-10.1c-1.9-2.9-3.3-6-3.8-9.4c-0.6-4.1,0-8,2.5-11.3
	c2.3-3.1,5.5-5,9.3-5.6c3-0.4,5.9,0.1,8.6,1.5c1.9,1,3.4,2.5,4.4,4.5c0.1,0.2,0.2,0.3,0.3,0.6c0.3-0.5,0.5-0.9,0.7-1.2
	c1.9-3,4.6-4.6,8-5.2c4.2-0.7,8,0.2,11.3,2.8c3,2.3,4.7,5.4,5.2,9.2C150.5,237.5,149.7,241.1,148.1,244.5z"/>
<path class="st10" d="M238.9,188c-1.9,3.8-4.5,7.1-7.5,10.1c-4.2,4.1-9,7.6-14.1,10.7c-0.4,0.3-0.8,0.5-1.3,0.8
	c-0.3,0.2-0.6,0.2-1,0c-4.1-2.5-8.1-5.2-11.8-8.3c-3.5-2.9-6.6-6.1-9.1-9.9c-1.9-2.8-3.3-5.8-3.8-9.2c-0.6-4,0-7.8,2.5-11.1
	c2.3-3.1,5.5-4.9,9.3-5.5c3-0.4,5.9,0.1,8.6,1.4c1.9,1,3.4,2.5,4.4,4.4c0.1,0.2,0.2,0.3,0.3,0.6c0.3-0.5,0.5-0.8,0.7-1.2
	c1.9-2.9,4.6-4.5,8-5.1c4.2-0.7,8,0.2,11.3,2.7c3,2.3,4.7,5.3,5.2,9C241.3,181.1,240.6,184.6,238.9,188z"/>
<path class="st10" d="M211.5,233.3c-1.9,3.8-4.5,7.1-7.5,10.1c-4.2,4.1-9,7.6-14.1,10.7c-0.4,0.3-0.8,0.5-1.3,0.8
	c-0.3,0.2-0.6,0.2-1,0c-4.1-2.5-8.1-5.2-11.8-8.3c-3.5-2.9-6.6-6.1-9.1-9.9c-1.9-2.8-3.3-5.8-3.8-9.2c-0.6-4,0-7.8,2.5-11.1
	c2.3-3.1,5.5-4.9,9.3-5.5c3-0.4,5.9,0.1,8.6,1.4c1.9,1,3.4,2.5,4.4,4.4c0.1,0.2,0.2,0.3,0.3,0.6c0.3-0.5,0.5-0.8,0.7-1.2
	c1.9-2.9,4.6-4.5,8-5.1c4.2-0.7,8,0.2,11.3,2.7c3,2.3,4.7,5.3,5.2,9C213.9,226.4,213.2,230,211.5,233.3z"/>
<path class="st10" d="M357.4,188c-1.9,3.8-4.5,7.1-7.5,10.1c-4.2,4.1-9,7.6-14.1,10.7c-0.4,0.3-0.8,0.5-1.3,0.8
	c-0.3,0.2-0.6,0.2-1,0c-4.1-2.5-8.1-5.2-11.8-8.3c-3.5-2.9-6.6-6.1-9.1-9.9c-1.9-2.8-3.3-5.8-3.8-9.2c-0.6-4,0-7.8,2.5-11.1
	c2.3-3.1,5.5-4.9,9.3-5.5c3-0.4,5.9,0.1,8.6,1.4c1.9,1,3.4,2.5,4.4,4.4c0.1,0.2,0.2,0.3,0.3,0.6c0.3-0.5,0.5-0.8,0.7-1.2
	c1.9-2.9,4.6-4.5,8-5.1c4.2-0.7,8,0.2,11.3,2.7c3,2.3,4.7,5.3,5.2,9C359.8,181.1,359.1,184.6,357.4,188z"/>
<path class="st10" d="M315.3,285.2c-1.9,3.8-4.5,7.1-7.5,10.1c-4.2,4.1-9,7.6-14.1,10.7c-0.4,0.3-0.8,0.5-1.3,0.8
	c-0.3,0.2-0.6,0.2-1,0c-4.1-2.5-8.1-5.2-11.8-8.3c-3.5-2.9-6.6-6.1-9.1-9.9c-1.9-2.8-3.3-5.8-3.8-9.2c-0.6-4,0-7.8,2.5-11.1
	c2.3-3.1,5.5-4.9,9.3-5.5c3-0.4,5.9,0.1,8.6,1.4c1.9,1,3.4,2.5,4.4,4.4c0.1,0.2,0.2,0.3,0.3,0.6c0.3-0.5,0.5-0.8,0.7-1.2
	c1.9-2.9,4.6-4.5,8-5.1c4.2-0.7,8,0.2,11.3,2.7c3,2.3,4.7,5.3,5.2,9C317.7,278.3,316.9,281.9,315.3,285.2z"/>
<path class="st10" d="M302.1,210.5c-1.9,3.8-4.5,7.1-7.5,10.1c-4.2,4.1-9,7.6-14.1,10.7c-0.4,0.3-0.8,0.5-1.3,0.8
	c-0.3,0.2-0.6,0.2-1,0c-4.1-2.5-8.1-5.2-11.8-8.3c-3.5-2.9-6.6-6.1-9.1-9.9c-1.9-2.8-3.3-5.8-3.8-9.2c-0.6-4,0-7.8,2.5-11.1
	c2.3-3.1,5.5-4.9,9.3-5.5c3-0.4,5.9,0.1,8.6,1.4c1.9,1,3.4,2.5,4.4,4.4c0.1,0.2,0.2,0.3,0.3,0.6c0.3-0.5,0.5-0.8,0.7-1.2
	c1.9-2.9,4.6-4.5,8-5.1c4.2-0.7,8,0.2,11.3,2.7c3,2.3,4.7,5.3,5.2,9C304.5,203.7,303.8,207.2,302.1,210.5z"/>
<path class="st10" d="M380.3,273.3c-1.9,3.8-4.5,7.1-7.5,10.1c-4.2,4.1-9,7.6-14.1,10.7c-0.4,0.3-0.8,0.5-1.3,0.8
	c-0.3,0.2-0.6,0.2-1,0c-4.1-2.5-8.1-5.2-11.8-8.3c-3.5-2.9-6.6-6.1-9.1-9.9c-1.9-2.8-3.3-5.8-3.8-9.2c-0.6-4,0-7.8,2.5-11.1
	c2.3-3.1,5.5-4.9,9.3-5.5c3-0.4,5.9,0.1,8.6,1.4c1.9,1,3.4,2.5,4.4,4.4c0.1,0.2,0.2,0.3,0.3,0.6c0.3-0.5,0.5-0.8,0.7-1.2
	c1.9-2.9,4.6-4.5,8-5.1c4.2-0.7,8,0.2,11.3,2.7c3,2.3,4.7,5.3,5.2,9C382.7,266.5,382,270,380.3,273.3z"/>
<path class="st10" d="M411.1,342.8c-4.2,4.1-9,7.6-14.1,10.7c-0.6,0.4-1.1,0.7-1.7,1.1c-4.3-2.6-8.5-5.3-12.3-8.6
	c-4.8-4-8.9-8.6-11.6-14.4c-0.1-0.2-0.2-0.4-0.2-0.5c-2-5.6-1.9-10.8,1.4-15.3c2.3-3.1,5.5-4.9,9.3-5.5c3-0.4,5.9,0.1,8.6,1.4
	c1.9,1,3.4,2.5,4.4,4.4c0.1,0.2,0.2,0.3,0.3,0.6c0.3-0.5,0.5-0.8,0.7-1.2c1.9-2.9,4.6-4.5,8-5.1c4.2-0.7,8,0.2,11.3,2.7
	c4.7,3.6,6.4,9.1,4.7,16.1C418.2,334.6,415,339,411.1,342.8z"/>
<path class="st10" d="M204,444.1c-4.2,4.1-9,7.6-14.1,10.7c-0.6,0.4-1.1,0.7-1.7,1.1c-4.3-2.6-8.5-5.3-12.3-8.6
	c-4.8-4-8.9-8.6-11.6-14.4c-0.1-0.2-0.2-0.4-0.2-0.5c-2-5.6-1.9-10.8,1.4-15.3c2.3-3.1,5.5-4.9,9.3-5.5c3-0.4,5.9,0.1,8.6,1.4
	c1.9,1,3.4,2.5,4.4,4.4c0.1,0.2,0.2,0.3,0.3,0.6c0.3-0.5,0.5-0.8,0.7-1.2c1.9-2.9,4.6-4.5,8-5.1c4.2-0.7,8,0.2,11.3,2.7
	c4.7,3.6,6.4,9.1,4.7,16.1C211.2,435.9,207.9,440.3,204,444.1z"/>
<path class="st10" d="M274,450.7c-4.2,4.1-9,7.6-14.1,10.7c-0.6,0.4-1.1,0.7-1.7,1.1c-4.3-2.6-8.5-5.3-12.3-8.6
	c-4.8-4-8.9-8.6-11.6-14.4c-0.1-0.2-0.2-0.4-0.2-0.5c-2-5.6-1.9-10.8,1.4-15.3c2.3-3.1,5.5-4.9,9.3-5.5c3-0.4,5.9,0.1,8.6,1.4
	c1.9,1,3.4,2.5,4.4,4.4c0.1,0.2,0.2,0.3,0.3,0.6c0.3-0.5,0.5-0.8,0.7-1.2c1.9-2.9,4.6-4.5,8-5.1c4.2-0.7,8,0.2,11.3,2.7
	c4.7,3.6,6.4,9.1,4.7,16.1C281.1,442.5,277.9,446.8,274,450.7z"/>
<path class="st10" d="M413.4,442c-4.2,4.1-9,7.6-14.1,10.7c-0.6,0.4-1.1,0.7-1.7,1.1c-4.3-2.6-8.5-5.3-12.3-8.6
	c-4.8-4-8.9-8.6-11.6-14.4c-0.1-0.2-0.2-0.4-0.2-0.5c-2-5.6-1.9-10.8,1.4-15.3c2.3-3.1,5.5-4.9,9.3-5.5c3-0.4,5.9,0.1,8.6,1.4
	c1.9,1,3.4,2.5,4.4,4.4c0.1,0.2,0.2,0.3,0.3,0.6c0.3-0.5,0.5-0.8,0.7-1.2c1.9-2.9,4.6-4.5,8-5.1c4.2-0.7,8,0.2,11.3,2.7
	c4.7,3.6,6.4,9.1,4.7,16.1C420.6,433.8,417.3,438.2,413.4,442z"/>
<path class="st10" d="M246.7,405.7c-4.2,4.1-9,7.6-14.1,10.7c-0.6,0.4-1.1,0.7-1.7,1.1c-4.3-2.6-8.5-5.3-12.3-8.6
	c-4.8-4-8.9-8.6-11.6-14.4c-0.1-0.2-0.2-0.4-0.2-0.5c-2-5.6-1.9-10.8,1.4-15.3c2.3-3.1,5.5-4.9,9.3-5.5c3-0.4,5.9,0.1,8.6,1.4
	c1.9,1,3.4,2.5,4.4,4.4c0.1,0.2,0.2,0.3,0.3,0.6c0.3-0.5,0.5-0.8,0.7-1.2c1.9-2.9,4.6-4.5,8-5.1c4.2-0.7,8,0.2,11.3,2.7
	c4.7,3.6,6.4,9.1,4.7,16.1C253.8,397.5,250.6,401.8,246.7,405.7z"/>
<path class="st10" d="M474.9,376.1c-4.2,4.1-9,7.6-14.1,10.7c-0.6,0.4-1.1,0.7-1.7,1.1c-4.3-2.6-8.5-5.3-12.3-8.6
	c-4.8-4-8.9-8.6-11.6-14.4c-0.1-0.2-0.2-0.4-0.2-0.5c-2-5.6-1.9-10.8,1.4-15.3c2.3-3.1,5.5-4.9,9.3-5.5c3-0.4,5.9,0.1,8.6,1.4
	c1.9,1,3.4,2.5,4.4,4.4c0.1,0.2,0.2,0.3,0.3,0.6c0.3-0.5,0.5-0.8,0.7-1.2c1.9-2.9,4.6-4.5,8-5.1c4.2-0.7,8,0.2,11.3,2.7
	c4.7,3.6,6.4,9.1,4.7,16.1C482.1,367.9,478.9,372.3,474.9,376.1z"/>
<path class="st10" d="M225.8,322c-1.9,3.8-4.5,7.1-7.5,10.1c-4.2,4.1-9,7.6-14.1,10.7c-0.4,0.3-0.8,0.5-1.3,0.8
	c-0.3,0.2-0.6,0.2-1,0c-4.1-2.5-8.1-5.2-11.8-8.3c-3.5-2.9-6.6-6.1-9.1-9.9c-1.9-2.8-3.3-5.8-3.8-9.2c-0.6-4,0-7.8,2.5-11.1
	c2.3-3.1,5.5-4.9,9.3-5.5c3-0.4,5.9,0.1,8.6,1.4c1.9,1,3.4,2.5,4.4,4.4c0.1,0.2,0.2,0.3,0.3,0.6c0.3-0.5,0.5-0.8,0.7-1.2
	c1.9-2.9,4.6-4.5,8-5.1c4.2-0.7,8,0.2,11.3,2.7c3,2.3,4.7,5.3,5.2,9C228.2,315.1,227.4,318.6,225.8,322z"/>
<path class="st10" d="M147.9,330.6c-1.9,3.8-4.5,7.1-7.5,10.1c-4.2,4.1-9,7.6-14.1,10.7c-0.4,0.3-0.8,0.5-1.3,0.8
	c-0.3,0.2-0.6,0.2-1,0c-4.1-2.5-8.1-5.2-11.8-8.3c-3.5-2.9-6.6-6.1-9.1-9.9c-1.9-2.8-3.3-5.8-3.8-9.2c-0.6-4,0-7.8,2.5-11.1
	c2.3-3.1,5.5-4.9,9.3-5.5c3-0.4,5.9,0.1,8.6,1.4c1.9,1,3.4,2.5,4.4,4.4c0.1,0.2,0.2,0.3,0.3,0.6c0.3-0.5,0.5-0.8,0.7-1.2
	c1.9-2.9,4.6-4.5,8-5.1c4.2-0.7,8,0.2,11.3,2.7c3,2.3,4.7,5.3,5.2,9C150.3,323.7,149.5,327.2,147.9,330.6z"/>
<path class="st10" d="M147.9,412c-1.9,3.8-4.5,7.1-7.5,10.1c-4.2,4.1-9,7.6-14.1,10.7c-0.4,0.3-0.8,0.5-1.3,0.8
	c-0.3,0.2-0.6,0.2-1,0c-4.1-2.5-8.1-5.2-11.8-8.3c-3.5-2.9-6.6-6.1-9.1-9.9c-1.9-2.8-3.3-5.8-3.8-9.2c-0.6-4,0-7.8,2.5-11.1
	c2.3-3.1,5.5-4.9,9.3-5.5c3-0.4,5.9,0.1,8.6,1.4c1.9,1,3.4,2.5,4.4,4.4c0.1,0.2,0.2,0.3,0.3,0.6c0.3-0.5,0.5-0.8,0.7-1.2
	c1.9-2.9,4.6-4.5,8-5.1c4.2-0.7,8,0.2,11.3,2.7c3,2.3,4.7,5.3,5.2,9C150.3,405.1,149.5,408.6,147.9,412z"/>
<path class="st10" d="M158.9,491c-1.9,3.8-4.5,7.1-7.5,10.1c-4.2,4.1-9,7.6-14.1,10.7c-0.4,0.3-0.8,0.5-1.3,0.8
	c-0.3,0.2-0.6,0.2-1,0c-4.1-2.5-8.1-5.2-11.8-8.3c-3.5-2.9-6.6-6.1-9.1-9.9c-1.9-2.8-3.3-5.8-3.8-9.2c-0.6-4,0-7.8,2.5-11.1
	c2.3-3.1,5.5-4.9,9.3-5.5c3-0.4,5.9,0.1,8.6,1.4c1.9,1,3.4,2.5,4.4,4.4c0.1,0.2,0.2,0.3,0.3,0.6c0.3-0.5,0.5-0.8,0.7-1.2
	c1.9-2.9,4.6-4.5,8-5.1c4.2-0.7,8,0.2,11.3,2.7c3,2.3,4.7,5.3,5.2,9C161.3,484.1,160.5,487.6,158.9,491z"/>
<path class="st10" d="M231.1,491c-1.9,3.8-4.5,7.1-7.5,10.1c-4.2,4.1-9,7.6-14.1,10.7c-0.4,0.3-0.8,0.5-1.3,0.8
	c-0.3,0.2-0.6,0.2-1,0c-4.1-2.5-8.1-5.2-11.8-8.3c-3.5-2.9-6.6-6.1-9.1-9.9c-1.9-2.8-3.3-5.8-3.8-9.2c-0.6-4,0-7.8,2.5-11.1
	c2.3-3.1,5.5-4.9,9.3-5.5c3-0.4,5.9,0.1,8.6,1.4c1.9,1,3.4,2.5,4.4,4.4c0.1,0.2,0.2,0.3,0.3,0.6c0.3-0.5,0.5-0.8,0.7-1.2
	c1.9-2.9,4.6-4.5,8-5.1c4.2-0.7,8,0.2,11.3,2.7c3,2.3,4.7,5.3,5.2,9C233.5,484.1,232.8,487.6,231.1,491z"/>
<path class="st10" d="M437.6,494.2c-1.9,3.8-4.5,7.1-7.5,10.1c-4.2,4.1-9,7.6-14.1,10.7c-0.4,0.3-0.8,0.5-1.3,0.8
	c-0.3,0.2-0.6,0.2-1,0c-4.1-2.5-8.1-5.2-11.8-8.3c-3.5-2.9-6.6-6.1-9.1-9.9c-1.9-2.8-3.3-5.8-3.8-9.2c-0.6-4,0-7.8,2.5-11.1
	c2.3-3.1,5.5-4.9,9.3-5.5c3-0.4,5.9,0.1,8.6,1.4c1.9,1,3.4,2.5,4.4,4.4c0.1,0.2,0.2,0.3,0.3,0.6c0.3-0.5,0.5-0.8,0.7-1.2
	c1.9-2.9,4.6-4.5,8-5.1c4.2-0.7,8,0.2,11.3,2.7c3,2.3,4.7,5.3,5.2,9C440,487.3,439.2,490.9,437.6,494.2z"/>
<path class="st10" d="M507.1,493.8c-1.9,3.8-4.5,7.1-7.5,10.1c-4.2,4.1-9,7.6-14.1,10.7c-0.4,0.3-0.8,0.5-1.3,0.8
	c-0.3,0.2-0.6,0.2-1,0c-4.1-2.5-8.1-5.2-11.8-8.3c-3.5-2.9-6.6-6.1-9.1-9.9c-1.9-2.8-3.3-5.8-3.8-9.2c-0.6-4,0-7.8,2.5-11.1
	c2.3-3.1,5.5-4.9,9.3-5.5c3-0.4,5.9,0.1,8.6,1.4c1.9,1,3.4,2.5,4.4,4.4c0.1,0.2,0.2,0.3,0.3,0.6c0.3-0.5,0.5-0.8,0.7-1.2
	c1.9-2.9,4.6-4.5,8-5.1c4.2-0.7,8,0.2,11.3,2.7c3,2.3,4.7,5.3,5.2,9C509.5,486.9,508.8,490.4,507.1,493.8z"/>
<path class="st10" d="M339.1,132.6c-1.9,3.9-4.5,7.3-7.5,10.3c-4.2,4.2-9,7.8-14.1,10.9c-0.4,0.3-0.8,0.5-1.3,0.8
	c-0.3,0.2-0.6,0.2-1,0c-4.1-2.5-8.1-5.3-11.8-8.4c-3.5-3-6.6-6.2-9.1-10.1c-1.9-2.9-3.3-6-3.8-9.4c-0.6-4.1,0-8,2.5-11.3
	c2.3-3.1,5.5-5,9.3-5.6c3-0.4,5.9,0.1,8.6,1.5c1.9,1,3.4,2.5,4.4,4.5c0.1,0.2,0.2,0.3,0.3,0.6c0.3-0.5,0.5-0.9,0.7-1.2
	c1.9-3,4.6-4.6,8-5.2c4.2-0.7,8,0.2,11.3,2.8c3,2.3,4.7,5.4,5.2,9.2C341.5,125.5,340.8,129.1,339.1,132.6z"/>
<path class="st10" d="M418.6,188c-1.9,3.9-4.5,7.3-7.5,10.3c-4.2,4.2-9,7.8-14.1,10.9c-0.4,0.3-0.8,0.5-1.3,0.8
	c-0.3,0.2-0.6,0.2-1,0c-4.1-2.5-8.1-5.3-11.8-8.4c-3.5-3-6.6-6.2-9.1-10.1c-1.9-2.9-3.3-6-3.8-9.4c-0.6-4.1,0-8,2.5-11.3
	c2.3-3.1,5.5-5,9.3-5.6c3-0.4,5.9,0.1,8.6,1.5c1.9,1,3.4,2.5,4.4,4.5c0.1,0.2,0.2,0.3,0.3,0.6c0.3-0.5,0.5-0.9,0.7-1.2
	c1.9-3,4.6-4.6,8-5.2c4.2-0.7,8,0.2,11.3,2.8c3,2.3,4.7,5.4,5.2,9.2C421,181,420.3,184.5,418.6,188z"/>
<path class="st10" d="M459.2,232.7c-1.9,3.9-4.5,7.3-7.5,10.3c-4.2,4.2-9,7.8-14.1,10.9c-0.4,0.3-0.8,0.5-1.3,0.8
	c-0.3,0.2-0.6,0.2-1,0c-4.1-2.5-8.1-5.3-11.8-8.4c-3.5-3-6.6-6.2-9.1-10.1c-1.9-2.9-3.3-6-3.8-9.4c-0.6-4.1,0-8,2.5-11.3
	c2.3-3.1,5.5-5,9.3-5.6c3-0.4,5.9,0.1,8.6,1.5c1.9,1,3.4,2.5,4.4,4.5c0.1,0.2,0.2,0.3,0.3,0.6c0.3-0.5,0.5-0.9,0.7-1.2
	c1.9-3,4.6-4.6,8-5.2c4.2-0.7,8,0.2,11.3,2.8c3,2.3,4.7,5.4,5.2,9.2C461.6,225.6,460.9,229.2,459.2,232.7z"/>
<path class="st10" d="M527.6,244.5c-1.9,3.9-4.5,7.3-7.5,10.3c-4.2,4.2-9,7.8-14.1,10.9c-0.4,0.3-0.8,0.5-1.3,0.8
	c-0.3,0.2-0.6,0.2-1,0c-4.1-2.5-8.1-5.3-11.8-8.4c-3.5-3-6.6-6.2-9.1-10.1c-1.9-2.9-3.3-6-3.8-9.4c-0.6-4.1,0-8,2.5-11.3
	c2.3-3.1,5.5-5,9.3-5.6c3-0.4,5.9,0.1,8.6,1.5c1.9,1,3.4,2.5,4.4,4.5c0.1,0.2,0.2,0.3,0.3,0.6c0.3-0.5,0.5-0.9,0.7-1.2
	c1.9-3,4.6-4.6,8-5.2c4.2-0.7,8,0.2,11.3,2.8c3,2.3,4.7,5.4,5.2,9.2C530,237.5,529.2,241.1,527.6,244.5z"/>
<path class="st10" d="M454.4,283.6c-1.9,3.9-4.5,7.3-7.5,10.3c-4.2,4.2-9,7.8-14.1,10.9c-0.4,0.3-0.8,0.5-1.3,0.8
	c-0.3,0.2-0.6,0.2-1,0c-4.1-2.5-8.1-5.3-11.8-8.4c-3.5-3-6.6-6.2-9.1-10.1c-1.9-2.9-3.3-6-3.8-9.4c-0.6-4.1,0-8,2.5-11.3
	c2.3-3.1,5.5-5,9.3-5.6c3-0.4,5.9,0.1,8.6,1.5c1.9,1,3.4,2.5,4.4,4.5c0.1,0.2,0.2,0.3,0.3,0.6c0.3-0.5,0.5-0.9,0.7-1.2
	c1.9-3,4.6-4.6,8-5.2c4.2-0.7,8,0.2,11.3,2.8c3,2.3,4.7,5.4,5.2,9.2C456.8,276.6,456.1,280.2,454.4,283.6z"/>
<path class="st10" d="M532.5,335.1c-1.9,3.9-4.5,7.3-7.5,10.3c-4.2,4.2-9,7.8-14.1,10.9c-0.4,0.3-0.8,0.5-1.3,0.8
	c-0.3,0.2-0.6,0.2-1,0c-4.1-2.5-8.1-5.3-11.8-8.4c-3.5-3-6.6-6.2-9.1-10.1c-1.9-2.9-3.3-6-3.8-9.4c-0.6-4.1,0-8,2.5-11.3
	c2.3-3.1,5.5-5,9.3-5.6c3-0.4,5.9,0.1,8.6,1.5c1.9,1,3.4,2.5,4.4,4.5c0.1,0.2,0.2,0.3,0.3,0.6c0.3-0.5,0.5-0.9,0.7-1.2
	c1.9-3,4.6-4.6,8-5.2c4.2-0.7,8,0.2,11.3,2.8c3,2.3,4.7,5.4,5.2,9.2C534.9,328.1,534.2,331.7,532.5,335.1z"/>
<path class="st10" d="M531.4,423.6c-1.9,3.9-4.5,7.3-7.5,10.3c-4.2,4.2-9,7.8-14.1,10.9c-0.4,0.3-0.8,0.5-1.3,0.8
	c-0.3,0.2-0.6,0.2-1,0c-4.1-2.5-8.1-5.3-11.8-8.4c-3.5-3-6.6-6.2-9.1-10.1c-1.9-2.9-3.3-6-3.8-9.4c-0.6-4.1,0-8,2.5-11.3
	c2.3-3.1,5.5-5,9.3-5.6c3-0.4,5.9,0.1,8.6,1.5c1.9,1,3.4,2.5,4.4,4.5c0.1,0.2,0.2,0.3,0.3,0.6c0.3-0.5,0.5-0.9,0.7-1.2
	c1.9-3,4.6-4.6,8-5.2c4.2-0.7,8,0.2,11.3,2.8c3,2.3,4.7,5.4,5.2,9.2C533.8,416.5,533,420.1,531.4,423.6z"/>
<path class="st2" d="M529.9,562.4c-7.4-2.2-14.6-4.2-22-6.4c2.6,4.5,5.1,8.8,7.6,13.2c-1,0.6-1.9,1.1-2.8,1.6
	c-3.8-6.7-7.7-13.3-11.6-20.1c7.5,2.2,14.7,4.3,22.2,6.5c-2.6-4.5-5.1-8.8-7.6-13.2c1-0.6,1.9-1.1,2.8-1.6
	C522.1,549,525.9,555.6,529.9,562.4z"/>
<path class="st2" d="M393.4,619.1c-0.3,1-0.6,2-0.9,2.9c-0.8-0.2-1.5-0.4-2.3-0.6c-6-1-10.9,4.8-8.9,10.6c1.7,4.9,6.9,7.1,11.5,4.9
	c3.3-1.6,4.4-6.1,3-8.2c-1.5,0.9-3,1.7-4.6,2.6c-0.5-0.9-1-1.8-1.5-2.7c1.3-0.8,2.6-1.5,3.9-2.2c1.3-0.7,2.5-1.5,3.8-2.2
	c4,5.2,2.6,12-2.6,15.1c-4.1,2.5-9.4,2.1-13-0.9c-3.7-3.2-5.1-8.4-3.4-12.9C380.8,619.5,387.5,616.6,393.4,619.1z"/>
<path class="st2" d="M456.9,597.3c0.5,0.9,0.9,1.7,1.4,2.4c0.6,0.7,0.4,1.2-0.1,1.9c-4.2,5.7-12,6.6-17,1.9c-3.4-3.1-4.5-8-2.9-12.5
	c1.5-4.1,5.6-7.1,10-7.4c0.7,0,1.1,0.1,1.4,0.7c0.4,0.8,0.9,1.5,1.4,2.5c-3.3-0.4-6.1,0.1-8.3,2.5c-1.3,1.4-1.9,3.1-2,4.9
	c-0.2,3.9,2.3,7.6,6,8.6C450.9,604.2,454,602.4,456.9,597.3z"/>
<path class="st2" d="M423.2,600.7c3.2,5.5,6.2,10.8,9.4,16.2c-1,0.6-1.8,1.1-2.8,1.6c-3.1-5.4-6.2-10.7-9.4-16.2
	c-1.5,0.9-2.9,1.7-4.3,2.5c-0.5-0.9-1-1.7-1.5-2.6c3.8-2.2,7.6-4.4,11.5-6.6c0.5,0.8,0.9,1.6,1.5,2.6
	C426.1,599.1,424.7,599.9,423.2,600.7z"/>
<path class="st2" d="M402.6,609.2c0.9-0.5,1.8-1,2.7-1.6c3.6,6.3,7.3,12.6,10.9,18.9c-0.9,0.5-1.7,1-2.7,1.6
	C409.9,621.8,406.3,615.5,402.6,609.2z"/>
<path class="st2" d="M501.4,577.4c-0.9,0.5-1.8,1-2.7,1.5c-3.6-6.3-7.2-12.5-10.9-18.9c0.9-0.5,1.7-1,2.7-1.5
	C494.1,564.7,497.7,571,501.4,577.4z"/>
<circle class="st11" cx="472.1" cy="575.8" r="11.5"/>
</svg>
