<?xml version="1.0" encoding="utf-8"?>
<!-- Generator: Adobe Illustrator 24.3.0, SVG Export Plug-In . SVG Version: 6.00 Build 0)  -->
<svg version="1.1" id="Layer_1" xmlns="http://www.w3.org/2000/svg" xmlns:xlink="http://www.w3.org/1999/xlink" x="0px" y="0px"
	 viewBox="0 0 667.3 737" style="enable-background:new 0 0 667.3 737;" xml:space="preserve">
<style type="text/css">
	.st0{fill:#E398E5;}
	.st1{fill:#0E6935;}
	.st2{fill:#A06338;}
	.st3{fill:#0C0C0C;}
	.st4{fill:#FF9F71;}
	.st5{fill:#CDDFFE;}
	.st6{fill:#D8DEEB;}
	.st7{fill:#FA0635;}
	.st8{fill:none;}
	.st9{fill:#ABABAB;}
	.st10{fill:#EE6BC2;}
	.st11{fill:#FFFFFF;}
	.st12{fill:#15003E;}
	.st13{fill:#FCFAFA;}
	.st14{fill:#25E899;}
	.st15{fill:#EFF4EE;}
	.st16{fill:none;stroke:#000000;stroke-miterlimit:10;}
	.st17{opacity:0.43;fill:#F70059;}
	.st18{fill:none;stroke:#0FCE7C;stroke-width:4;stroke-miterlimit:10;}
</style>
<polygon class="st0" points="579.5,512.2 579.5,228.3 333.7,86.4 87.9,228.3 87.9,512.2 333.7,654.1 "/>
<path class="st1" d="M339.7,257.7c-0.2-0.2-0.4-0.3-0.6-0.2c-1.3,1.7-2.6,3.4-3.9,5.1c-0.1,0.2-0.3,0.4-0.5,0.7
	c-0.1-2.8-0.8-4.5-2.1-5.9c0.1,1.5,0,2.7,0.1,3.9c0.2,2.3,0.4,4.5,0,6.8c-0.2,1.2-0.3,2.5-0.4,3.7c0,0.2,0,0.4-0.1,0.5
	c0.1,0,0.3,0,0.4,0C333.7,265,336.5,261.1,339.7,257.7z"/>
<path class="st1" d="M343.8,331.1c-0.2-0.2-0.4-0.4-0.5-0.2c-1.5,1.5-3.1,3-4.6,4.5c-0.2,0.2-0.3,0.3-0.6,0.6
	c0.3-2.7-0.1-4.5-1.2-6.1c-0.2,1.5-0.3,2.7-0.4,3.9c-0.1,2.3-0.3,4.5-1,6.8c-0.4,1.2-0.7,2.4-0.9,3.6c0,0.2-0.1,0.3-0.1,0.5
	c0.1,0,0.3,0,0.4,0.1C336.9,337.6,340.2,334.1,343.8,331.1z"/>
<path class="st1" d="M303.3,464c-0.2,0-0.4,0.1-0.3,0.2c0.8,1.6,1.7,3.2,2.6,4.8c0.1,0.2,0.2,0.3,0.3,0.6c-2.2-1.4-3.7-2-5.3-2
	c1.2,0.8,2.1,1.4,3.1,2c1.8,1.1,3.6,2.2,5.3,3.6c0.9,0.7,1.8,1.5,2.7,2.2c0.1,0.1,0.3,0.2,0.4,0.3c0-0.1,0.1-0.1,0.1-0.2
	C306.9,471.1,304.9,467.5,303.3,464z"/>
<path class="st1" d="M317.6,311.3c-0.2,0-0.4,0.1-0.4,0.2c-0.2,1.5-0.4,3-0.6,4.5c0,0.2,0,0.3-0.1,0.6c-1.1-1.2-2.2-1.6-3.6-1.6
	c0.6,0.7,1.1,1.2,1.6,1.7c1,0.9,2,1.9,2.6,3.1c0.3,0.7,0.7,1.3,1.2,1.9c0.1,0.1,0.1,0.2,0.2,0.3c0.1-0.1,0.2-0.1,0.3-0.2
	C316.5,317.9,316.9,314.6,317.6,311.3z"/>
<path class="st2" d="M537.1,287.6c-4.7-8.1-12.5-12.7-20.3-17.4c1.5-0.2,2.8-0.1,4.2,0c4.5,0.5,9,1.1,13.5,1.5
	c0.9,0.1,1.8-0.7,2.7-1c-0.1-0.4-0.3-0.8-0.4-1.3c-3.7-0.5-7.4-0.9-11.1-1.4c-2.4-0.3-5.8,0.1-7-1.3c-1.2-1.4-0.3-4.7-0.3-7.2
	c-3.2,0.4-2.9,2.9-3.2,5c-0.1,0.8-0.7,1.5-1.1,2.2c-0.7-0.4-1.3-1-2.1-1.3c-1.2-0.6-2.4-1.4-3.6-1.5c-1.6-0.1-3.3,0.8-4.9,0.8
	c-11.7-0.4-23.4-1-35.1-1.3c-15.2-0.4-30.5-0.5-45.7-0.7c-6.3-0.1-12.5,0-19.6,0c0.1-0.4,0.2-0.7,0.3-1.1c-0.8,0-1.5,0-2.3,0
	c-0.5,1.4-1.5,1.9-3.3,1.9c-3.6-0.1-7.3-0.8-10.7-0.1c-7.5,1.5-15,2.1-22.6,0.6c-1.1-0.2-3.3,0-3.5,0.6c-1,3.4-3.9,2.5-6.1,2.9
	c-6.1,1.2-12.2,2.1-18.3,3.1c-1.9,0.3-3.8,0.6-5.8,0.9c0,1,0,2,0,2.9c4.9-1,9.5-2,14.1-2.7c8.7-1.2,17.5-3.5,26.1-3.1
	c12.6,0.6,24.9,4.3,36.4,9.9c6.9,3.4,13.1,7.7,17.6,14.2c1,1.5,2.5,2.5,3.8,3.8c-0.6-1.9-0.9-4.1-2-5.7c-6.2-9-15.3-14-25.2-17.8
	c-5.2-2-10.6-3.5-17-5.5c2.3-0.5,3.6-1.1,5-1.1c20.1-0.5,40.3-1.1,60.4-1.2c10,0,20,1.2,30.1,1.9c2.1,0.1,4.2,0.6,6.3,0.6
	c6.4,0.2,13.1-0.8,19.1,0.8c6.4,1.7,12.5,5.5,18.2,9.1c6.3,3.9,11.6,9.1,13.6,16.8c0.2,0.7,1.4,1.1,2.2,1.6c0.3-0.3,0.6-0.6,0.9-0.9
	C539.2,292.8,538.5,290,537.1,287.6z"/>
<path class="st1" d="M554.9,255.3c-0.3,3.6,0,7.4-1.1,10.8c-2.2,7.1-11.1,9.7-17.3,5.5c-0.6-0.4-1.1-1.3-1.2-2
	c-1.8-10.9,6.6-18.1,17-14.5C553.2,255.3,554.1,255.2,554.9,255.3C555,255.3,554.9,255.3,554.9,255.3z"/>
<path class="st1" d="M443.8,303c-1.4,0.6-2.7,1.6-4.2,1.9c-3.4,0.7-6.5-0.2-9.1-2.6c-2.9-2.7-5-5.9-5.8-9.8c3.8-3.1,9.3-3,12.9,0.8
	c2.5,2.7,4.1,6.2,6.1,9.3c0,0,0.2,0.1,0.2,0.1L443.8,303z"/>
<path class="st1" d="M417,248c0.2,1.5,0.6,3.1,0.5,4.6c-0.4,3.5-2.3,6.1-5.3,7.8c-3.4,1.9-7.1,2.9-11.1,2.5c-1.7-4.6,0.1-9.8,4.8-12
	c3.3-1.5,7.2-1.9,10.8-2.8c0,0,0.2-0.1,0.2-0.1L417,248z"/>
<path class="st1" d="M514.8,258.7c0.3-1.7,0.5-3.3,0.8-5c1.2-1.4,2.2-3,3.5-4.3c3-3.1,7.5-4.4,12.2-3.7c0.5,5.3-0.9,9.8-5.2,13.3
	c-0.7,0.6-1.4,1.3-2.1,2c0,0,0-0.1,0-0.1c-0.4,0.3-0.9,0.6-1.3,0.8c0,0,0,0,0,0c-0.2-0.1-0.4-0.3-0.6-0.4c-0.4,0.3-0.8,0.6-1.3,0.9
	c0,0,0,0,0,0c-0.3,0.1-0.6,0.2-1,0.3c0,0,0,0,0,0c-1.2-0.3-2.5-0.7-3.9-1.1C515.7,260.6,515.2,259.7,514.8,258.7z"/>
<path class="st1" d="M530.2,306c-2-6,3.9-12.6,10-11.2c0.7,0.2,1.5,1.6,1.5,2.5C541.8,302.6,537.2,306.1,530.2,306z"/>
<path class="st2" d="M352,335c-6.2,4.5-12.9,8-20.8,9c-1.8,0.2-3.4,1.1-5.1,1.6c2,0.3,4,1.1,5.9,0.9c10.9-1.3,19.5-7.1,27.5-14.1
	c4.2-3.7,8-7.7,12.7-12.4l4.6-11.2C370.4,319.1,361.8,327.8,352,335z"/>
<path class="st2" d="M296.4,473.8c-11.2-1.7-22.4-3.2-33.7-4.8l0,3.4c4.2,0.5,8.4,0.9,12.5,1.4c10.9,1.3,21.1,4.2,31.6,6.4
	c2.2,0.5,4.3,1.3,6.5,1.7c5.6,0.9,12,0.9,17.2,2.4l1.5-4.5C320.2,477.9,308.4,475.6,296.4,473.8z"/>
<path class="st2" d="M351.3,448.8c6.2,1,12.4,1.8,19.4,2.8c0,0.2-0.1,0.3-0.1,0.5l2.5,0.3c0.8-1.4,1.8-1.7,3.1-1.5
	c3.5,0.7,7,2.5,10.5,1.7c7.9-1.6,15.4-1.8,22.5,2.2c1.1,0.6,3.3,0.4,3.6-0.5c1.9-6.2,4.6-4.1,6.8-4.6c6.3-1.4,12.6-2.2,19-3.2
	c2-0.3,3.9-0.6,6-0.9c0.3-1.9,0.5-3.7,0.8-5.5c-5.1,1.1-9.9,2.4-14.7,3c-8.9,1.1-18.2,4-26.6,2c-0.5-0.1-1.1-0.3-1.6-0.5l-12.2,0.5
	c0,0,0.1,0.1,0.1,0.1c-2.4,0.6-3.9,1.4-5.2,1.3c-16.2-1.6-32.5-3.1-48.7-5.1l0.6,5C341.8,447.2,346.6,448,351.3,448.8z"/>
<path class="st2" d="M212.6,289.3c1-0.4,2.1-0.5,2.9-0.1c2.1,1.2,4.1,2.8,6.2,3.9c11.5,5.9,25.9-1.6,33.6-13.7l2.6,2.4
	C237.7,300.4,225.3,302.6,212.6,289.3z"/>
<path class="st2" d="M459.4,474.1c-0.9-0.6-1.7-1.3-1.9-2.1c-0.5-2.2-0.6-4.4-1.2-6.6c-3.1-11.5-17.8-18.4-31.5-18l0-3.2
	C451.2,449.9,460.8,458,459.4,474.1z"/>
<path class="st2" d="M293.5,474.6c-0.5,0-1.1,0.2-1.3,0.5c-0.7,1-1.3,2.1-2.1,3c-4,5-12.2,4.5-18.1,0.5l-0.7,1.6
	C284.2,484.7,290.3,483.2,293.5,474.6z"/>
<path class="st1" d="M240.9,468.3c1.2-1.2,2.2-2.7,3.5-3.7c3.2-2.2,6.8-2.5,10.4-1.1c4.1,1.6,7.6,4,10,7.7c-2.7,4.7-8.4,7-13.6,4.5
	c-3.7-1.7-6.7-4.7-10.1-7.1c0,0-0.2-0.1-0.2-0.1L240.9,468.3z"/>
<path class="st1" d="M383.9,321.2L383.9,321.2c0.1,0.1,0,0.2,0,0.2c-0.4-0.1-0.9-0.4-1.3-0.3c-2.8,0.4-4.9-0.5-6.5-3
	c-1.4-2.3-1.9-4.9-1.6-7.6c0.1-0.5,0.8-1.2,1.3-1.2c3-0.3,6.1,1.8,7,5C383.6,316.5,383.6,318.9,383.9,321.2z"/>
<path class="st1" d="M218,302.8l0,0.1c0,0-0.1,0.1-0.1,0.1c-0.4-0.2-0.7-0.6-1.1-0.7c-2.8-0.6-4.5-2.2-5.1-5c-0.6-2.7-0.1-5.3,1-7.7
	c0.2-0.4,1.2-0.8,1.7-0.7c2.9,0.7,5.2,3.7,5,7.1C219.3,298.2,218.5,300.5,218,302.8z"/>
<path class="st2" d="M337.8,370.6c0,0.1,0,0.2,0,0.3C337.8,370.8,337.8,370.7,337.8,370.6c-0.1-1-0.1-2.1-0.2-3.1c0.1,0,0.1,0,0.2,0
	c0-1,0-1.9,0-2.9c-0.1,0-0.2,0-0.2,0c-0.2-1.2-0.4-2-0.4-2.7c-1.8-27.4-3.6-54.9-5.6-82.3c-0.2-2.3,0.2-4.2,1-6c0-1.6,0-3.3,0-4.9
	c-0.5,0.5-1,1-1.5,1.6c-2.1-31.6-4.2-62.1-6.3-92.6c-0.2,0-0.4,0-0.6,0c-0.5,11.2-0.9,22.3-1.5,34.6c-14.6-22.6-37.2-29.2-60.8-35.2
	c0.2-0.1,0.4-0.3,0.5-0.4l-5.9-0.9c-2.7,0.5-5.5,0.3-8.7-0.9c-0.2-0.1-0.5-0.1-0.8-0.1c-3.6,0.6-7.1,1.2-10.7,1.7
	c0.1,0.6,0.2,1.3,0.3,1.9c2.8-0.2,5.7-0.5,8.5-0.7c1.5-0.1,3.1-0.1,4.6,0.2c5.1,0.9,10.2,1.7,15.2,2.9c11.2,2.7,22.1,6,32.7,12
	c-13,12.5-26.1,23.7-46,22.2c0.4,0.9,1.1,2,1.9,2.1c2.2,0.3,4.4,0.4,6.6,0.3c12.5-0.9,22.4-7.4,31.6-15.1c2.9-2.5,5.6-5.2,9-8.4
	c4.4,3.8,8.9,7.2,12.8,11.2c6.2,6.4,9,13.9,8.5,23.2c-1.4,23.3-2.1,46.7-3.1,70c-0.3,7.3-0.7,14.6-1.2,22.8
	c-17-15.7-35.1-28.5-54.8-38.7c0-0.1,0.1-0.2,0.1-0.3l-3.2-1.5c0,0,0,0.1-0.1,0.1c-0.3-0.1-0.7-0.2-1-0.3
	c-14.5-6.9-29.5-12.3-45.2-15.6c0,0.9,0,1.8,0,2.7c39.2,8.8,72.6,28.4,102,55.6c0.4,0.3,0.7,0.8,0.9,1.3c0-1.5,0-3.1,0-4.1
	c0,1,0,2.6,0,4.1c0.6,1,0.9,2.3,0.9,3.3c-0.3,10.7-0.8,21.4-1.3,32.1c-1.8,43-3.6,85.9-5.4,128.9c-1,24-2.1,48-3.1,72
	c-0.2,5.2,0,10.5,0,15.9c14.6,0,29.1,0,43.8,0C347,507.8,342.4,439.4,337.8,370.6z"/>
<path class="st1" d="M224.5,182.5c1-1.9,1.8-4,3.2-5.6c2.9-3.3,8.4-2.6,10.7,1.2c0.2,0.4,0.3,1,0.2,1.4c-1.7,6.4-8,8.2-12.8,3.8
	C225.5,182.9,225,182.7,224.5,182.5C224.5,182.4,224.5,182.5,224.5,182.5z"/>
<path class="st1" d="M235.3,218.9c0.6-1.4,1.1-2.9,2-4.1c2.1-2.8,5.1-4,8.6-3.9c3.9,0.2,7.6,1.2,10.8,3.7c-0.9,4.8-5.2,8.3-10.4,7.7
	c-3.6-0.4-7.1-2.1-10.6-3.3c0,0-0.2,0-0.2,0L235.3,218.9z"/>
<path class="st1" d="M475.5,480.3c-1.4,0.6-2.8,1.4-4.3,1.7c-3.5,0.5-6.5-0.6-9-3.1c-2.8-2.8-4.7-6.1-5.3-10.1
	c4-2.8,9.5-2.5,12.9,1.5c2.3,2.8,3.7,6.4,5.5,9.7c0,0,0.2,0.1,0.2,0.1L475.5,480.3z"/>
<path class="st1" d="M196.1,267.6c0.7-1.3,1.2-2.9,2.2-4c2.3-2.6,5.4-3.7,8.8-3.4c3.9,0.4,7.5,1.7,10.5,4.3c-1.2,4.7-5.7,8-10.8,7.1
	c-3.6-0.6-7-2.5-10.5-3.8c0,0-0.2,0-0.2,0L196.1,267.6z"/>
<path class="st3" d="M418,400.8c0-0.4,0-0.7,0.1-1.1c0-0.9-0.2-1.8-0.6-2.6c-0.6-1-1.4-1.8-2.4-2.5c-1.1-0.8-2.2-1.5-3.3-2.3
	c-0.4-0.3-0.8-0.6-1.1-1c-0.7-0.9-1.2-1.9-1.3-3c-0.1-1.2-0.1-2.3,0.2-3.4c0.4-1.3,1.3-2.4,2.2-3.4c0.9-1.1,1.8-2.1,2.3-3.4
	c0.5-1.5,0.3-2.9-0.4-4.2c-0.4-0.8-1.2-1.4-2-1.7c-1.2-0.5-2.4-0.8-3.6-1.3c-2.1-0.9-3-2-2.9-4.2c0-0.8,0.2-1.6,0.2-2.4
	c0-0.2,0-0.3,0-0.5c-0.1,0.1-0.2,0.1-0.3,0.2c-0.1,0.8-0.2,1.5-0.2,2.3c-0.1,0.9-0.1,1.7,0.3,2.5c0.4,0.9,1.1,1.6,2,2
	c1.3,0.5,2.7,1,4,1.5c1.6,0.6,2.6,1.7,2.8,3.5c0.2,1.4-0.3,2.7-1.1,3.8c-0.8,1-1.6,2-2.4,3c-1.6,2.1-1.9,4.5-1.1,7
	c0.4,1.5,1.5,2.5,2.7,3.3c1.2,0.9,2.5,1.7,3.8,2.6c1.4,1,2,2.4,1.9,4.1c0,0.7-0.1,1.3-0.1,1.9C417.7,401.5,417.8,401.2,418,400.8
	C418,400.8,418,400.8,418,400.8z"/>
<path class="st3" d="M419.2,395.7c-0.2-1.4-0.9-2.5-1.7-3.6c-0.9-1.3-1.9-2.5-2.8-3.8c-0.3-0.5-0.6-1-0.8-1.5
	c-0.4-1.2-0.6-2.5-0.3-3.9c0.3-1.3,0.7-2.6,1.5-3.7c0.9-1.3,2.3-2.2,3.7-3c1.4-0.8,2.8-1.6,3.8-2.9c1.1-1.4,1.5-3.1,1.2-4.8
	c-0.2-1.1-0.8-2-1.6-2.6c-1.1-1-2.4-1.8-3.5-2.8c-2-1.7-2.6-3.3-1.7-5.7c0.3-0.9,0.8-1.7,1.1-2.5c0.1-0.2,0.1-0.4,0.2-0.6
	c-0.1,0-0.3,0.1-0.4,0.1c-0.4,0.8-0.7,1.6-1.1,2.5c-0.4,0.9-0.7,1.9-0.7,2.9c0.1,1.2,0.6,2.2,1.5,3c1.3,1.1,2.6,2.1,3.9,3.2
	c1.5,1.3,2.2,2.9,1.8,4.9c-0.3,1.7-1.3,2.9-2.7,3.9c-1.2,0.9-2.6,1.6-3.8,2.5c-2.6,1.7-3.8,4.3-3.9,7.3c-0.1,1.8,0.7,3.3,1.7,4.7
	c1.1,1.4,2.2,2.8,3.2,4.3c0.9,1.3,1.2,2.7,0.9,4.2c0.2-0.2,0.3-0.4,0.5-0.5C419.3,396.7,419.3,396.2,419.2,395.7z"/>
<path class="st3" d="M433.3,369.4c-0.7-1.1-1.4-2.1-2.1-3.2c-1.1-2-1.2-3.4,0.2-5.1c0.5-0.6,1.1-1.1,1.6-1.7
	c0.1-0.1,0.2-0.3,0.3-0.4c-0.1,0-0.2,0-0.4,0c-0.5,0.6-1.1,1.1-1.6,1.7c-0.6,0.6-1.1,1.3-1.3,2.2c-0.3,1-0.1,2,0.4,2.8
	c0.7,1.2,1.5,2.4,2.3,3.7c0.9,1.5,1,2.9,0.1,4.5c-0.7,1.2-1.9,2-3.2,2.4c-1.2,0.4-2.5,0.6-3.8,0.9c-2.6,0.7-4.2,2.4-5.1,4.8
	c-0.5,1.4-0.3,2.9,0.1,4.3c0.5,1.5,1,2.9,1.4,4.4c0.5,1.6,0.1,3.1-1,4.4c-0.6,0.8-1.3,1.5-2,2.2c0,0.2,0,0.4-0.1,0.6
	c0-0.1,0.1-0.1,0.1-0.2c0.7-0.8,1.5-1.6,2.2-2.4c0.6-0.7,1-1.6,1.2-2.6c0.2-1.2,0-2.3-0.4-3.4c-0.4-1.3-0.9-2.5-1.3-3.8
	c-0.1-0.5-0.2-0.9-0.2-1.4c0-1.1,0.2-2.2,0.8-3.2c0.6-1,1.3-1.9,2.2-2.5c1.1-0.8,2.5-1.1,3.8-1.4c1.4-0.3,2.7-0.5,3.9-1.3
	c1.3-0.8,2-2.1,2.3-3.6C434,371,433.8,370.2,433.3,369.4z"/>
<path class="st4" d="M436.1,335.7c-0.3,1.1-0.5,2.3-0.8,3.4c-0.5,2.1-1.6,3.9-2.8,5.6c-2.5,3.3-5.9,5.5-9.9,6.7
	c-1.3,0.4-2.7,0.5-4.1,0.8c0.7,1.2,1.4,2.4,2.1,3.6c0,0,0,0.1,0,0.1c-0.1,0-0.1,0-0.2,0c-0.9,0-1.7,0-2.6,0c-0.1,0-0.1,0-0.2,0
	c-0.1,0-0.3,0.1-0.4,0.1c-0.7,0-1.5,0-2.4,0c0.8-1.4,1.5-2.6,2.2-3.9c-1.8-0.1-3.5-0.5-5.2-1c-2.5-0.8-4.7-2.2-6.7-4
	c-2.7-2.5-4.5-5.6-5.4-9.2c-0.4-1.7-0.7-3.4-0.6-5.1c0.1-2.2,0.6-4.4,1.5-6.4c1-2.4,2.4-4.5,4.3-6.3c2.5-2.4,5.4-3.9,8.8-4.7
	c1.5-0.3,3-0.5,4.5-0.4c4.2,0.1,7.9,1.4,11.2,4c2.9,2.3,5,5.3,6.1,8.8c0.4,1.1,0.5,2.3,0.7,3.5c0.1,0.6,0.1,1.1,0.2,1.7
	c0,0.3,0,0.6,0,0.9C436.2,334.5,436.2,335.1,436.1,335.7z"/>
<path class="st5" d="M436.1,335.7c0.1-0.6,0.1-1.2,0.2-1.8c0,0.4,0,0.9,0,1.3C436.3,335.4,436.2,335.5,436.1,335.7z"/>
<path class="st5" d="M436.3,333c-0.1-0.6-0.1-1.1-0.2-1.7c0.1,0.2,0.2,0.4,0.2,0.7C436.3,332.3,436.3,332.6,436.3,333z"/>
<path class="st6" d="M420.5,355.9c0,0,0-0.1,0-0.1C420.6,355.8,420.6,355.8,420.5,355.9C420.6,355.8,420.6,355.8,420.5,355.9z"/>
<path class="st7" d="M453.3,349.3c-0.5,0.8-1.1,1.7-1.6,2.5c-1,1.6-2.3,2.7-3.9,3.8c-3,2-6.3,2.9-9.8,2.7c-1.2-0.1-2.3-0.3-3.5-0.5
	c0.2,1.1,0.4,2.3,0.7,3.5c0,0,0,0.1,0,0.1c-0.1,0-0.1,0-0.2,0c-0.7-0.2-1.4-0.5-2.1-0.7c-0.1,0-0.1,0-0.2-0.1c-0.1,0-0.2,0-0.4,0
	c-0.6-0.2-1.2-0.4-1.9-0.7c1-0.9,1.9-1.7,2.9-2.5c-1.5-0.6-2.7-1.4-3.9-2.3c-1.8-1.4-3.2-3.1-4.3-5.1c-1.5-2.8-2.1-5.8-1.8-9
	c0.1-1.5,0.4-2.9,1-4.3c0.7-1.8,1.7-3.4,3-4.8c1.5-1.7,3.2-2.9,5.2-3.9c2.7-1.2,5.5-1.7,8.4-1.4c1.3,0.1,2.5,0.4,3.7,0.9
	c3.3,1.3,6,3.3,7.9,6.3c1.7,2.7,2.6,5.6,2.5,8.8c0,1-0.2,2-0.4,3c-0.1,0.5-0.2,1-0.3,1.4c-0.1,0.2-0.2,0.5-0.2,0.7
	C453.7,348.3,453.5,348.8,453.3,349.3z"/>
<path class="st6" d="M435.1,361.3C435.2,361.3,435.2,361.2,435.1,361.3C435.2,361.2,435.2,361.3,435.1,361.3
	C435.2,361.3,435.2,361.3,435.1,361.3z"/>
<path class="st8" d="M418.4,398.8c0-0.1,0-0.1,0.1-0.2c-0.2,0.3-0.3,0.6-0.4,1C418.2,399.4,418.3,399.1,418.4,398.8z"/>
<path class="st8" d="M417.6,400.8C417.6,400.7,417.6,400.7,417.6,400.8C417.6,400.7,417.6,400.7,417.6,400.8
	C417.6,400.7,417.6,400.7,417.6,400.8z"/>
<path class="st9" d="M417.6,400.8c0,0.4-0.1,0.8-0.1,1.2c0.1-0.2,0.2-0.4,0.3-0.6C417.7,401.1,417.7,400.9,417.6,400.8
	C417.6,400.7,417.6,400.7,417.6,400.8z"/>
<path class="st3" d="M418.4,398.8c-0.1,0.3-0.2,0.6-0.3,0.9c0,0.1,0,0.2,0,0.4c0,0.2,0,0.4,0,0.6c0.3-0.5,0.5-1.1,0.8-1.6
	c0.2-0.4,0.3-0.8,0.4-1.3c-0.2,0.3-0.5,0.6-0.7,0.9C418.5,398.7,418.5,398.8,418.4,398.8z"/>
<path class="st9" d="M416.7,402.9c-0.6,1.5-0.6,3,0.3,4.5c0.2,0.2,0.3,0.4,0.6,0.2c-0.3-0.6-0.6-1.2-0.8-1.9c-0.3-0.9,0-1.8,0.3-2.7
	c0-0.4,0.1-0.9,0.1-1.3C417,402.1,416.9,402.5,416.7,402.9z"/>
<path class="st9" d="M418.1,399.7c-0.1,0.3-0.3,0.7-0.4,1c0,0.2,0.1,0.4,0.1,0.6c0.1-0.2,0.2-0.5,0.3-0.7c0-0.2,0-0.4,0-0.6
	C418.1,399.9,418.1,399.8,418.1,399.7z"/>
<path class="st3" d="M418.8,397.7c-0.1,0.3-0.1,0.6-0.3,1c0.2-0.3,0.5-0.6,0.7-0.9c0-0.2,0.1-0.4,0.1-0.6
	C419.1,397.4,418.9,397.5,418.8,397.7z"/>
<path class="st10" d="M405.2,363.7c0.7-0.2,1.4-0.5,2.1-0.7c0.1,0,0.1,0,0.2-0.1c0,0,0-0.1,0-0.1c-0.9-0.8-1.8-1.6-2.7-2.4
	c1.1-0.6,2.1-1.1,3.1-1.7c3-2,5.1-4.7,6.2-8.1c0.6-1.7,0.9-3.5,0.8-5.3c-0.1-1-0.2-2-0.3-3c-0.1-0.5-0.2-1-0.3-1.5
	c-0.1-0.2-0.2-0.5-0.2-0.7c-0.2-0.4-0.4-0.9-0.6-1.3c-0.5-0.9-1-1.8-1.6-2.6c-1.9-2.6-4.4-4.4-7.4-5.5c-3.4-1.2-6.7-1.2-10.1-0.2
	c-1.2,0.4-2.4,0.9-3.5,1.6c-2.5,1.5-4.5,3.6-5.8,6.2c-1,2-1.6,4-1.8,6.3c-0.1,1.9,0.1,3.8,0.6,5.6c0.4,1.4,1,2.7,1.8,4
	c1.7,2.7,4,4.7,6.9,6c2.1,0.9,4.2,1.4,6.5,1.4c1.5,0,3-0.2,4.5-0.6c-0.2,1.3-0.5,2.5-0.7,3.8c0.7-0.2,1.3-0.4,1.9-0.7
	c0.1-0.1,0.2-0.1,0.3-0.2C405.1,363.8,405.2,363.7,405.2,363.7z"/>
<path class="st9" d="M417.2,401.7c0,0.4-0.1,0.9-0.1,1.3c0.1-0.2,0.1-0.4,0.2-0.6c0.1-0.2,0.1-0.3,0.2-0.5c0-0.4,0.1-0.8,0.1-1.2
	C417.5,401.1,417.3,401.4,417.2,401.7z"/>
<path class="st6" d="M407.5,362.9C407.5,362.9,407.5,362.9,407.5,362.9C407.5,362.9,407.5,362.9,407.5,362.9
	C407.5,362.9,407.5,362.9,407.5,362.9z"/>
<path class="st11" d="M384.3,502.4c-1.5-0.2-2.6-1.5-2.5-3c0-1.7,1.2-3,2.7-3.1l14.1,0.4c1.5,0.2,2.6,1.5,2.5,3c0,1.7-1.2,3-2.7,3.1
	L384.3,502.4L384.3,502.4z"/>
<rect x="394.9" y="494.1" transform="matrix(3.070842e-02 -0.9995 0.9995 3.070842e-02 -112.6161 877.2018)" class="st12" width="2.1" height="5.2"/>
<path class="st12" d="M393.3,498.4c-0.4,0-0.7-0.4-0.7-0.8l0.1-2.1l0,0c0-0.4,0.3-0.8,0.7-0.8l5.2,0.2c0.4,0,0.7,0.4,0.7,0.8
	l-0.1,2.1l0,0c0,0.4-0.3,0.8-0.7,0.8c0,0,0,0,0,0L393.3,498.4L393.3,498.4z M397.9,496.5l-3.8-0.1l0,0.5l3.8,0.1L397.9,496.5z"/>
<rect x="387" y="493.8" transform="matrix(3.070842e-02 -0.9995 0.9995 3.070842e-02 -120.0574 869.0413)" class="st12" width="2.1" height="5.2"/>
<path class="st12" d="M385.4,498.2c-0.4,0-0.7-0.4-0.7-0.8c0,0,0,0,0,0l0.1-2.1l0,0c0-0.4,0.3-0.8,0.7-0.8l5.2,0.2
	c0.4,0,0.7,0.4,0.7,0.8l-0.1,2.1c0,0.4-0.3,0.8-0.7,0.8L385.4,498.2z M389.9,496.2l-3.8-0.1l0,0.5l3.8,0.1L389.9,496.2z"/>
<path class="st11" d="M370.6,498.7c0.1-1.7-1-3.1-2.5-3.2l-14.1-0.4c-1.5,0.1-2.7,1.3-2.7,2.8c-0.1,1.7,1,3.1,2.5,3.2l14.1,0.4
	C369.4,501.4,370.6,500.2,370.6,498.7z"/>
<rect x="356.3" y="492.9" transform="matrix(3.070842e-02 -0.9995 0.9995 3.070842e-02 -148.9667 837.4935)" class="st12" width="2.1" height="5.2"/>
<path class="st12" d="M354,496.5l0.1-2.1l0,0c0-0.4,0.3-0.8,0.7-0.8l5.2,0.2c0.4,0,0.7,0.4,0.7,0.8l-0.1,2.1c0,0.4-0.3,0.8-0.7,0.8
	l-5.2-0.2C354.2,497.3,353.9,496.9,354,496.5z M359.2,495.3l-3.8-0.1l0,0.5l3.8,0.1L359.2,495.3z"/>
<rect x="364.2" y="493.2" transform="matrix(3.070842e-02 -0.9995 0.9995 3.070842e-02 -141.5298 845.6492)" class="st12" width="2.1" height="5.2"/>
<path class="st12" d="M361.9,496.8l0.1-2.1l0,0c0-0.4,0.3-0.8,0.7-0.8c0,0,0,0,0,0l5.2,0.2c0.4,0,0.7,0.4,0.7,0.8l-0.1,2.1l0,0
	c0,0.4-0.3,0.8-0.7,0.8l-5.2-0.2C362.2,497.5,361.9,497.2,361.9,496.8z M367.2,495.6l-3.8-0.1l0,0.5l3.8,0.1L367.2,495.6z"/>
<g id="Layer_8">
	<path class="st13" d="M393,402.1l4.6-17.8c0.3-8.7-6.7-15-6.7-15c-5.3-4.4-12.9-3.4-12.9-3.4c-12.4,2.8-13.3,17-13.3,17l3.7,17.6
		L393,402.1z"/>
</g>
<path class="st11" d="M360.5,435.6l0.4-13.4l36.9,1.1l-0.4,13.4l0,0c-0.2,5.2-4.1,9.4-8.8,9.2l-19.8-0.6
	C364,445.1,360.3,440.8,360.5,435.6z"/>
<path class="st12" d="M359.8,435.6l0.4-13.4c0-0.4,0.3-0.8,0.7-0.8l36.9,1.1c0.4,0,0.7,0.4,0.7,0.8l-0.4,13.4
	c-0.2,5.7-4.5,10.1-9.6,10l-19.8-0.6C363.6,445.9,359.6,441.2,359.8,435.6z M361.6,423.1l-0.4,12.5c-0.1,4.8,3.2,8.8,7.5,8.9
	l19.8,0.6c4.3,0.1,7.9-3.6,8.1-8.4l0.4-12.6L361.6,423.1z"/>
<path class="st14" d="M360.6,432.4l36.9,1.1"/>
<rect x="378.3" y="414.5" transform="matrix(3.070842e-02 -0.9995 0.9995 3.070842e-02 -65.3963 798.5838)" class="st12" width="1.6" height="36.9"/>
<path class="st12" d="M397.5,433.6l-36.1-1.1l-0.9,3.1l1.7,6l3.9,3.2l12,1.3l11.8-0.9l3.2-0.2l3.8-5.4L397.5,433.6L397.5,433.6z"/>
<path class="st10" d="M375.4,433.4L375.4,433.4L375.4,433.4c-0.1,2.3,1.6,4.3,3.7,4.4c2.1,0.1,3.9-1.8,3.9-4.1
	c0.1-2.4-1.6-4.3-3.7-4.4C377.3,429.2,375.5,431.1,375.4,433.4"/>
<path class="st12" d="M374.7,433.4L374.7,433.4c0.1-2.8,2.2-5,4.7-4.9s4.5,2.4,4.4,5.2c-0.1,2.8-2.2,5-4.7,4.9
	C376.6,438.5,374.6,436.2,374.7,433.4z M379.3,430.1c-1.7-0.1-3.1,1.4-3.2,3.3l0,0c-0.1,1.9,1.3,3.5,3,3.5c1.7,0.1,3.1-1.4,3.2-3.3
	C382.4,431.7,381,430.2,379.3,430.1z"/>
<path class="st12" d="M393.2,444.1L393.2,444.1c-0.1,1.1,0.7,2,1.8,2.1l0,0c1.1,0.2,2.2-0.6,2.3-1.8c0.2-1.1-0.6-2.2-1.8-2.3
	c-1.1-0.2-2.2,0.6-2.3,1.8C393.2,443.9,393.2,444,393.2,444.1"/>
<path class="st12" d="M360.5,443.1L360.5,443.1c-0.1,1.1,0.7,2,1.8,2.1l0,0c1.1,0.1,2.2-0.7,2.3-1.8c0.1-1.1-0.7-2.2-1.8-2.3
	c-1.1-0.1-2.2,0.7-2.3,1.8C360.5,442.9,360.5,443,360.5,443.1"/>
<path class="st15" d="M362.6,441.7L362.6,441.7c-0.1,0.7,0.4,1.3,1.1,1.3l0,0c0.7,0.1,1.4-0.4,1.5-1.1c0.1-0.7-0.4-1.4-1.1-1.5
	s-1.4,0.4-1.5,1.1C362.6,441.6,362.6,441.7,362.6,441.7"/>
<path class="st15" d="M392.8,442.7L392.8,442.7c0,0.7,0.4,1.2,1.1,1.3l0,0c0.7,0.1,1.4-0.4,1.4-1.1s-0.4-1.4-1.1-1.4
	c-0.7-0.1-1.4,0.4-1.4,1.1C392.8,442.6,392.8,442.6,392.8,442.7"/>
<path class="st11" d="M392,470.1l0.5-16.8l0,0l0-0.3c0.1-1.9,1.6-3.3,3.3-3.2c1.7,0.1,2.9,1.7,2.8,3.6l-0.6,20.2l-3-0.1
	C393.2,473.5,391.9,471.9,392,470.1z"/>
<path class="st12" d="M391.3,470.1l0.5-16.8c0-0.1,0-0.2,0-0.3c0.1-2.3,1.9-4.1,4-3.9s3.6,2.1,3.5,4.4l-0.6,20.2
	c0,0.4-0.3,0.8-0.7,0.8l-3-0.1C392.8,474.3,391.2,472.4,391.3,470.1z M397.9,453.5c0-1.3-0.9-2.4-2.1-2.5c-1.3,0-2.5,1-2.5,2.4
	c0,0,0,0,0,0l-0.5,16.8c-0.1,1.4,0.9,2.5,2.2,2.7l2.3,0.1L397.9,453.5z"/>
<path class="st12" d="M387.4,475.5l0.7-22.5c0-0.4,0.3-0.7,0.7-0.8s0.7,0.3,0.8,0.7c0,0,0,0.1,0,0.1l-0.7,22.5
	c0,0.4-0.3,0.7-0.7,0.8s-0.7-0.3-0.8-0.7C387.4,475.6,387.4,475.5,387.4,475.5L387.4,475.5z"/>
<path class="st11" d="M389.7,486.4c-1.2-0.2-2-1.2-1.9-2.4c0-1.2,1-2.1,2.2-2.1c0,0,0,0,0,0l5.6,0.2c1.2,0.2,2.1,1.4,1.9,2.6
	c-0.2,1-1,1.8-2,1.9L389.7,486.4L389.7,486.4z"/>
<path class="st12" d="M389.6,487.2c-1.5-0.1-2.7-1.6-2.5-3.3c0.1-1.7,1.4-3,3-2.8l5.6,0.2c1.5,0.2,2.6,1.5,2.6,3
	c0,1.7-1.2,3.1-2.7,3.1L389.6,487.2z M390,482.7c-0.8,0.1-1.4,0.8-1.4,1.6c0,0.7,0.6,1.3,1.3,1.4l5.6,0.2c0.8-0.1,1.4-0.8,1.4-1.6
	c0-0.7-0.6-1.3-1.3-1.4L390,482.7z"/>
<path class="st12" d="M384.6,503L384.6,503c-1.9-0.1-3.4-1.8-3.3-3.9c0.1-2.1,1.7-3.8,3.6-3.7l14.1,0.4c1.9,0.1,3.4,1.8,3.3,3.9
	c-0.1,2.1-1.7,3.8-3.6,3.7L384.6,503z M384.8,496.9c-1.2,0-2.1,1-2.1,2.2c0,0.6,0.2,1.1,0.5,1.6c0.3,0.4,0.9,0.7,1.4,0.7l14.1,0.4
	c1.1-0.1,1.9-1,2-2.1c0.1-1.2-0.7-2.2-1.8-2.4L384.8,496.9z"/>
<rect x="387.7" y="488.7" transform="matrix(3.070842e-02 -0.9995 0.9995 3.070842e-02 -110.6159 868.8343)" class="st11" width="9.8" height="5.4"/>
<path class="st12" d="M389.8,497.1c-0.4,0-0.7-0.4-0.7-0.8c0,0,0,0,0,0l0.3-9.8l0,0c0-0.4,0.3-0.8,0.7-0.8l5.4,0.2
	c0.4,0,0.7,0.4,0.7,0.8l-0.3,9.8l0,0c0,0.4-0.3,0.8-0.7,0.8L389.8,497.1L389.8,497.1z M394.8,487.4l-4-0.1l-0.3,8.2l4,0.1
	L394.8,487.4z"/>
<path class="st12" d="M387.3,478.7c0-0.4,0.3-0.8,0.7-0.8l9.7,0.3c0.4,0.1,0.7,0.5,0.7,0.9c-0.1,0.4-0.4,0.6-0.7,0.7l-9.7-0.3
	C387.6,479.5,387.3,479.1,387.3,478.7z"/>
<path class="st12" d="M392.1,466l6.1,0.2"/>
<rect x="394.3" y="463" transform="matrix(3.070842e-02 -0.9995 0.9995 3.070842e-02 -82.8583 846.7312)" class="st12" width="1.6" height="6.1"/>
<path class="st12" d="M392.4,457.2l6.1,0.2"/>
<rect x="394.6" y="454.2" transform="matrix(3.070842e-02 -0.9995 0.9995 3.070842e-02 -73.8099 838.4803)" class="st12" width="1.6" height="6.1"/>
<ellipse transform="matrix(3.070842e-02 -0.9995 0.9995 3.070842e-02 -94.3018 855.0645)" class="st10" cx="393.7" cy="476.2" rx="2.5" ry="2.3"/>
<path class="st12" d="M390.7,476.1L390.7,476.1c0.1-1.8,1.5-3.3,3.1-3.2c1.7,0.1,3,1.6,2.9,3.4c-0.1,1.8-1.5,3.3-3.1,3.2
	C392,479.4,390.7,477.9,390.7,476.1z M392.2,476.1L392.2,476.1c0.1,0.9,0.8,1.5,1.7,1.4c0.9-0.1,1.5-0.8,1.4-1.7
	c-0.1-0.8-0.7-1.4-1.5-1.5C392.9,474.4,392.1,475.2,392.2,476.1C392.2,476.1,392.2,476.1,392.2,476.1L392.2,476.1z"/>
<path class="st12" d="M392.9,482.8c-0.4,0-0.7-0.4-0.7-0.8l0.1-3.2l0,0c0-0.4,0.3-0.7,0.7-0.8c0.4,0,0.7,0.3,0.8,0.7
	c0,0,0,0.1,0,0.1l-0.1,3.2l0,0C393.7,482.5,393.4,482.8,392.9,482.8C392.9,482.8,392.9,482.8,392.9,482.8z"/>
<path class="st12" d="M389.8,451c-0.3-0.3-0.3-0.8,0-1.1l2.8-2.9c0.1-0.1,0.3-0.2,0.5-0.2l3.7,0.1c0.4,0.1,0.7,0.5,0.7,0.9
	c-0.1,0.4-0.4,0.7-0.7,0.7l-3.4-0.1l-2.6,2.7c-0.1,0.1-0.3,0.2-0.5,0.2C390.1,451.3,389.9,451.2,389.8,451z"/>
<path class="st11" d="M363.4,469.3l0.5-16.8c0-0.3,0-0.5,0-0.8c-0.1-1.9-1.6-3.3-3.3-3.1c-1.7,0.2-3,1.8-2.8,3.7l-0.6,20.2l3,0.1
	C361.9,472.6,363.3,471.2,363.4,469.3z"/>
<path class="st12" d="M356.5,472.5l0.6-20.5c0.1-2.3,1.9-4.1,4-3.9s3.6,2.1,3.5,4.4l-0.5,16.8c-0.1,2.3-1.8,4.1-3.9,4.1l-3-0.1
	C356.7,473.2,356.4,472.9,356.5,472.5z M360.9,449.8L360.9,449.8c-1.4,0-2.4,1.2-2.4,2.5l-0.6,19.4l2.3,0.1c1.4,0,2.4-1.2,2.4-2.5
	l0.5-16.8C363.3,451.1,362.3,449.9,360.9,449.8z"/>
<path class="st12" d="M366.8,475.7c-0.4,0-0.7-0.4-0.7-0.8l0.7-22.5l0,0c0-0.4,0.3-0.7,0.7-0.8c0.4,0,0.7,0.3,0.8,0.7
	c0,0,0,0.1,0,0.1l-0.7,22.5C367.5,475.4,367.2,475.7,366.8,475.7L366.8,475.7z"/>
<path class="st11" d="M366.5,483.7c0.1-1.2-0.7-2.3-1.9-2.4l-5.6-0.2c-1.1,0.1-2,1-2,2.1c-0.1,1.2,0.7,2.3,1.9,2.4l5.6,0.2
	C365.6,485.7,366.4,484.8,366.5,483.7z"/>
<path class="st12" d="M358.8,486.4c-1.5-0.2-2.6-1.5-2.6-3c0-1.7,1.2-3.1,2.7-3.1l5.6,0.2c1.5,0.2,2.6,1.5,2.6,3
	c0,1.7-1.2,3.1-2.7,3.1L358.8,486.4z M358.9,481.9c-0.8,0.1-1.4,0.8-1.4,1.6c0,0.7,0.6,1.3,1.3,1.4l5.6,0.2c0.8-0.1,1.4-0.8,1.4-1.6
	c0-0.7-0.6-1.3-1.3-1.4L358.9,481.9z"/>
<path class="st12" d="M354.4,502.1c-1.9-0.1-3.3-2-3.2-4.1c0.1-2.1,1.8-3.7,3.7-3.6l14.1,0.4c1.8,0.1,3.2,1.8,3.2,3.8
	c0,2.1-1.5,3.8-3.4,3.9L354.4,502.1z M354.8,496.1c-1.1,0.1-1.9,1-2,2.1c-0.1,1.2,0.7,2.2,1.8,2.4l14.1,0.4c1.2-0.1,2.1-1.3,2-2.5
	c-0.1-1-0.9-1.8-1.8-2L354.8,496.1z"/>
<rect x="356.5" y="487.9" transform="matrix(3.070842e-02 -0.9995 0.9995 3.070842e-02 -140.0702 836.7083)" class="st11" width="9.8" height="5.4"/>
<path class="st12" d="M357.8,495.4l0.3-9.8l0,0c0-0.4,0.3-0.8,0.7-0.8c0,0,0,0,0,0l5.4,0.2c0.4,0,0.7,0.4,0.7,0.8l-0.3,9.8
	c0,0.4-0.3,0.8-0.7,0.8l-5.4-0.2C358.1,496.2,357.8,495.8,357.8,495.4z M363.5,486.5l-4-0.1l-0.3,8.2l4,0.1L363.5,486.5z"/>
<path class="st12" d="M356.3,477.8c0-0.4,0.3-0.8,0.7-0.8l9.7,0.3c0.4,0.1,0.7,0.5,0.7,0.9c-0.1,0.4-0.4,0.7-0.7,0.7l-9.7-0.3
	C356.6,478.6,356.3,478.2,356.3,477.8z"/>
<path class="st12" d="M363.5,465.2l-6.1-0.2"/>
<rect x="359.7" y="462.1" transform="matrix(3.070842e-02 -0.9995 0.9995 3.070842e-02 -115.4932 811.1075)" class="st12" width="1.6" height="6.1"/>
<path class="st12" d="M363.8,456.4l-6.1-0.2"/>
<rect x="359.9" y="453.3" transform="matrix(3.070842e-02 -0.9995 0.9995 3.070842e-02 -106.4447 802.8566)" class="st12" width="1.6" height="6.1"/>
<ellipse transform="matrix(3.070842e-02 -0.9995 0.9995 3.070842e-02 -124.8529 821.726)" class="st10" cx="361.3" cy="475.2" rx="2.5" ry="2.3"/>
<path class="st12" d="M361.2,478.6c-1.7-0.1-3-1.6-2.9-3.4c0.1-1.8,1.4-3.3,3.1-3.2c1.7,0.1,3,1.6,2.9,3.4
	C364.2,477.2,362.8,478.6,361.2,478.6z M361.3,473.5L361.3,473.5c-1-0.1-1.8,0.5-2,1.5s0.5,1.8,1.5,2c1,0.1,1.8-0.5,2-1.5
	c0-0.1,0-0.1,0-0.2C362.9,474.4,362.2,473.6,361.3,473.5C361.3,473.5,361.3,473.5,361.3,473.5z"/>
<path class="st12" d="M361.6,481.9c-0.4,0-0.7-0.4-0.7-0.8l0.1-3.2c0-0.4,0.3-0.7,0.7-0.7c0.4,0,0.8,0.3,0.8,0.8c0,0,0,0,0,0
	l-0.1,3.2C362.4,481.6,362,481.9,361.6,481.9z"/>
<path class="st12" d="M365.7,450.4l-2.4-2.9l-3.4-0.1c-0.4-0.1-0.6-0.4-0.6-0.8c0-0.4,0.3-0.8,0.7-0.8l3.7,0.1
	c0.2,0,0.4,0.1,0.5,0.3l2.6,3.1c0.1,0.2,0.2,0.4,0.2,0.6c0,0.4-0.3,0.8-0.7,0.8C366,450.6,365.9,450.5,365.7,450.4z"/>
<rect x="399.5" y="430.7" transform="matrix(3.070842e-02 -0.9995 0.9995 3.070842e-02 -45.8983 825.6867)" class="st12" width="6.6" height="11.6"/>
<rect x="351.2" y="429.2" transform="matrix(3.070842e-02 -0.9995 0.9995 3.070842e-02 -91.2052 776.0003)" class="st12" width="6.6" height="11.6"/>
<rect x="376.8" y="406.4" transform="matrix(3.070842e-02 -0.9995 0.9995 3.070842e-02 -50.9661 786.5096)" class="st11" width="6.6" height="26.3"/>
<path class="st12" d="M366.3,415l27.7,0.9l-0.3,8.1l-27.7-0.9L366.3,415z M392.5,417.4l-24.8-0.8l-0.2,5l24.8,0.8L392.5,417.4z"/>
<path class="st12" d="M369.1,412.6c0-0.4,0.3-0.8,0.7-0.8l20.5,0.6c0.4,0,0.8,0.4,0.7,0.9c0,0.4-0.4,0.7-0.8,0.7l-20.5-0.6
	C369.4,413.4,369.1,413.1,369.1,412.6z"/>
<path class="st10" d="M392.9,402l-24.7-0.8l-1.4-6.6l2.2-0.9l25.7,0.8L392.9,402z"/>
<path class="st15" d="M368.2,405.5l0.1-4.2l24.7,0.8l-0.1,4.2c-0.1,2.1-1.7,3.8-3.6,3.8l-17.7-0.5
	C369.6,409.4,368.1,407.6,368.2,405.5z"/>
<path class="st12" d="M371.5,410.3c-2.3-0.1-4.1-2.2-4-4.8l0.2-5l26.1,0.8l-0.2,5c-0.1,2.6-2,4.6-4.3,4.5L371.5,410.3z M369,402.1
	l-0.1,3.4c-0.1,1.7,1.1,3.1,2.7,3.2l17.7,0.5c1.5,0,2.8-1.3,2.9-3l0.1-3.4L369,402.1z"/>
<path class="st10" d="M376.5,394.1c-1-0.6-2-1.3-2.8-2.1c-4.4-4.6-4.6-12.3-0.4-17.3c2.1-2.5,14.8-1.9,16.7,0.8
	c0.6,0.9,1.1,1.9,1.5,2.9c2.3,6.2-0.5,13.4-6.2,15.9"/>
<path class="st12" d="M386,395.2c-0.3,0-0.5-0.2-0.6-0.5c-0.2-0.4,0-0.8,0.4-1.1c5.4-2.7,7.9-9.8,5.5-15.9c-0.2-0.4-0.4-0.8-0.6-1.2
	c-0.2-0.4-0.1-0.8,0.3-1.1c0.3-0.2,0.7-0.1,0.9,0.2c0,0,0,0,0,0.1c0.2,0.5,0.5,0.9,0.6,1.4c2.7,6.8,0,14.9-6.2,17.9
	C386.2,395.1,386.1,395.1,386,395.2L386,395.2z"/>
<path class="st12" d="M375.5,394.7c-0.6-0.4-1.2-0.8-1.7-1.2c-5.3-4.6-6.2-13.1-2-19c0.2-0.3,0.6-0.4,0.9-0.2c0,0,0.1,0,0.1,0.1
	c0.3,0.3,0.4,0.8,0.1,1.1c-3.7,5.2-2.9,12.7,1.8,16.8c0.5,0.4,1,0.8,1.5,1.1c0.3,0.2,0.4,0.4,0.4,0.7c0,0.4-0.3,0.8-0.8,0.8
	C375.8,394.8,375.6,394.8,375.5,394.7z"/>
<path class="st12" d="M364.1,383.7l0-0.2c0.3-10.5,8.2-18.7,17.7-18.4c9.4,0.3,16.8,9,16.5,19.5l0,0.1l-4.8,18.2l-25.8-0.8
	L364.1,383.7z M396.8,384.4c0.1-9.4-6.4-17.1-14.9-17.6c-8.6-0.4-16,7-16.4,16.6l3.4,17.1l23.6,0.7L396.8,384.4z"/>
<path class="st12" d="M396,392.8L396,392.8c-0.4-0.1-0.7-0.5-0.7-0.9c0.1-0.4,0.4-0.7,0.7-0.7l1.7,0.1c1,0,1.8-0.9,1.8-1.9l0.2-7
	c0.1-1-0.7-1.9-1.7-2l-0.7,0c-0.4-0.1-0.7-0.5-0.6-1c0.1-0.3,0.3-0.6,0.7-0.6l0.7,0c1.8,0.1,3.1,1.7,3.1,3.7l-0.2,7
	c-0.1,2-1.5,3.5-3.3,3.5L396,392.8L396,392.8z"/>
<path class="st12" d="M361,388.2l0.2-7c0.1-2,1.5-3.5,3.3-3.5l0.7,0c0.4,0.1,0.6,0.4,0.6,0.8c0,0.4-0.3,0.8-0.7,0.8l-0.7,0
	c-1,0-1.8,0.9-1.8,1.9l-0.2,7c-0.1,1,0.7,1.9,1.7,2l1.7,0.1c0.4,0.1,0.6,0.4,0.6,0.8c0,0.4-0.3,0.8-0.7,0.8l-1.7-0.1
	C362.3,391.8,360.9,390.1,361,388.2z"/>
<path class="st12" d="M396.9,382c-8.1-10-22.1-10.7-31.2-1.7l-0.1,0.1c-0.3,0.2-0.7,0.2-0.9,0c0,0-0.1-0.1-0.1-0.1
	c-0.2-0.3-0.2-0.8,0.1-1.1c9.7-9.6,24.5-8.8,33.2,1.8l0,0c0.3,0.3,0.3,0.8,0,1.1c-0.1,0.1-0.3,0.2-0.5,0.2
	C397.2,382.3,397,382.2,396.9,382z"/>
<path class="st12" d="M366.2,393.8c0-0.4,0.3-0.8,0.7-0.8l27.9,0.9c0.4,0.1,0.6,0.4,0.6,0.8c0,0.4-0.3,0.8-0.7,0.8l-27.9-0.9
	C366.5,394.5,366.2,394.2,366.2,393.8z"/>
<path class="st11" d="M375.6,378.8L375.6,378.8c0.1-1.8,1.4-3.1,3-3.1l0,0c1.6,0,2.8,1.5,2.8,3.3c-0.1,1.8-1.4,3.1-3,3.1
	C376.8,382.1,375.5,380.6,375.6,378.8"/>
<path class="st11" d="M373.4,383.5c0-0.7,0.5-1.2,1.2-1.3l0,0c0.7-0.1,1.3,0.5,1.4,1.2s-0.5,1.3-1.2,1.4c-0.7,0.1-1.3-0.5-1.4-1.2
	C373.4,383.6,373.4,383.6,373.4,383.5"/>
<path class="st12" d="M370.8,399.6L370.8,399.6c-0.4-0.1-0.7-0.5-0.7-0.9c0.1-0.4,0.4-0.6,0.7-0.7c0.3,0,0.5-0.2,0.8-0.8
	c0.4-0.6,1-1.5,2.1-1.5c1.1,0,1.6,1,2,1.6s0.5,0.8,0.8,0.9c0.3,0,0.5-0.2,0.8-0.8c0.4-0.6,1-1.5,2.1-1.5s1.6,1,2,1.6
	s0.5,0.8,0.8,0.9c0.3,0,0.5-0.2,0.8-0.8c0.4-0.6,1-1.5,2.1-1.5c1.1,0,1.6,0.9,2,1.6s0.5,0.8,0.8,0.8c0.3,0,0.4-0.2,0.8-0.8
	c0.4-0.6,1-1.5,2.1-1.5c0.4,0.1,0.6,0.4,0.6,0.8c0,0.4-0.3,0.8-0.7,0.8c-0.3,0-0.4,0.2-0.8,0.8c-0.4,0.6-1,1.5-2.1,1.5
	c-1.1,0-1.6-1-2-1.6c-0.3-0.6-0.5-0.9-0.8-0.9c-0.3,0-0.4,0.2-0.8,0.8c-0.4,0.6-1,1.5-2.1,1.5s-1.6-1-2-1.6
	c-0.4-0.6-0.5-0.8-0.8-0.9c-0.3,0-0.4,0.2-0.8,0.8s-1,1.5-2.1,1.5c-1.1,0-1.6-1-2-1.6s-0.5-0.8-0.8-0.9s-0.4,0.2-0.8,0.8
	C372.4,398.8,371.9,399.7,370.8,399.6L370.8,399.6z"/>
<path class="st14" d="M405.9,437l2.6-7.9"/>
<path class="st12" d="M409,429.3l-2.6,7.9c0,0,0,0.1,0,0.1c-0.1,0.3-0.4,0.4-0.6,0.3c0,0,0,0,0,0c-0.2-0.1-0.4-0.4-0.2-0.7l2.6-7.9
	l0,0c0.1-0.3,0.3-0.4,0.6-0.4C408.9,428.7,409,428.9,409,429.3C409,429.2,409,429.3,409,429.3L409,429.3z"/>
<path class="st12" d="M412.7,416.1l2.3-7.1"/>
<path class="st12" d="M415.5,409.2l-2.3,7.1c-0.1,0.2-0.3,0.4-0.6,0.3c-0.3-0.1-0.4-0.3-0.3-0.6c0,0,0,0,0,0l2.3-7.1l0,0
	c0.1-0.3,0.3-0.4,0.6-0.4s0.4,0.3,0.4,0.6C415.5,409.1,415.5,409.2,415.5,409.2z"/>
<path class="st11" d="M417.2,415.1l-6.6,20.4l0,0c-0.5,1.5-2,2.4-3.4,1.9l-2.6-0.8c-1.4-0.4-2.1-2-1.6-3.5l6.6-20.4l0,0
	c0.5-1.5,2-2.4,3.4-1.9l2.6,0.8C417,412,417.7,413.6,417.2,415.1z"/>
<path class="st12" d="M417.7,415.3l-6.6,20.4c-0.6,1.8-2.4,2.8-4,2.3l-2.6-0.8c-1.6-0.5-2.4-2.4-1.9-4.2l6.6-20.4
	c0.6-1.8,2.4-2.8,4-2.3l2.6,0.8C417.4,411.6,418.3,413.5,417.7,415.3z M407.4,436.9c1.1,0.4,2.3-0.3,2.7-1.6l6.6-20.4
	c0.4-1.2-0.2-2.5-1.3-2.9l-2.6-0.8c-1.1-0.4-2.3,0.3-2.7,1.6l-6.6,20.4c-0.4,1.2,0.2,2.5,1.3,2.9L407.4,436.9z"/>
<path class="st10" d="M414.7,416.8L414.7,416.8L414.7,416.8c0.4-1.2-0.2-2.5-1.3-2.8l0,0c-1.1-0.4-2.3,0.3-2.7,1.6
	c-0.4,1.2,0.2,2.5,1.3,2.9C413.1,418.7,414.3,418,414.7,416.8"/>
<path class="st12" d="M415.2,416.9L415.2,416.9c-0.5,1.5-2,2.4-3.3,1.9s-2-2-1.6-3.5s2-2.4,3.3-1.9
	C415,413.9,415.7,415.4,415.2,416.9z M414.3,416.6L414.3,416.6c0.2-0.9-0.4-1.7-1.3-1.9c-0.9-0.2-1.7,0.4-1.9,1.3
	c-0.2,0.8,0.3,1.6,1.1,1.9C413.1,418.1,414,417.5,414.3,416.6L414.3,416.6z"/>
<path class="st12" d="M412.4,429.9c0.3,0.1,0.4,0.4,0.3,0.7c-0.1,0.2-0.3,0.4-0.6,0.3l-7.5-2.5c-0.3-0.1-0.4-0.4-0.3-0.7
	c0.1-0.2,0.3-0.4,0.6-0.3L412.4,429.9z"/>
<path class="st12" d="M414.1,424.8c0.3,0.1,0.4,0.4,0.2,0.7c-0.1,0.2-0.3,0.3-0.6,0.3l-7.5-2.5c-0.3-0.1-0.4-0.4-0.3-0.7
	c0.1-0.2,0.4-0.4,0.6-0.3L414.1,424.8z"/>
<path class="st15" d="M419.1,402.8l-1.8,5.5c-0.2,0.7-1,1.2-1.7,1l-1.1-0.3c-0.7-0.3-1.1-1.1-0.8-1.8l1.8-5.5"/>
<path class="st12" d="M419.2,402.3c0.3,0.1,0.4,0.4,0.3,0.6l-1.8,5.5c-0.3,1-1.4,1.6-2.3,1.3l-1.1-0.3c-0.9-0.3-1.4-1.4-1.1-2.4
	l1.8-5.5l0,0c0.1-0.3,0.3-0.4,0.6-0.4s0.4,0.3,0.4,0.6c0,0,0,0,0,0.1l-1.8,5.5l0,0c-0.2,0.5,0.1,1,0.5,1.1l1.1,0.3
	c0.5,0.1,1-0.2,1.1-0.6l1.8-5.5l0,0C418.7,402.3,419,402.2,419.2,402.3L419.2,402.3z"/>
<path class="st10" d="M419.1,402.8c0.4-1.1-0.2-2.2-1.1-2.6l0,0c-1-0.3-2.1,0.3-2.4,1.4c-0.4,1.1,0.2,2.2,1.1,2.6
	C417.6,404.5,418.7,403.8,419.1,402.8"/>
<path class="st12" d="M419.5,402.9c-0.4,1.4-1.8,2.2-3,1.8c-1.2-0.4-1.9-1.8-1.4-3.2c0.4-1.4,1.8-2.1,3-1.7
	C419.3,400.1,420,401.5,419.5,402.9z M416.8,403.7c0.8,0.2,1.6-0.3,1.8-1l0,0c0.2-0.8-0.3-1.5-1.1-1.7c-0.8-0.2-1.5,0.3-1.7,1.1
	C415.7,402.7,416.1,403.4,416.8,403.7z"/>
<g>
	<path class="st14" d="M348.5,435.8l8-2.3"/>
	<path class="st12" d="M356.6,434l-8,2.3c0,0-0.1,0-0.1,0c-0.3,0.1-0.5-0.1-0.6-0.3c0,0,0,0,0,0c0-0.3,0.2-0.5,0.4-0.6l8-2.3l0,0
		c0.2-0.1,0.5,0,0.6,0.3C357,433.6,356.9,433.8,356.6,434C356.6,433.9,356.6,434,356.6,434L356.6,434z"/>
	<path class="st12" d="M369.6,429.8l7.2-2"/>
	<path class="st12" d="M376.9,428.2l-7.2,2c-0.2,0.1-0.5-0.1-0.6-0.3c-0.1-0.3,0.1-0.5,0.3-0.6c0,0,0,0,0,0l7.2-2l0,0
		c0.2-0.1,0.5,0,0.6,0.3c0.1,0.2,0,0.5-0.3,0.6C377,428.2,376.9,428.2,376.9,428.2z"/>
	<path class="st11" d="M372.9,432.9l-20.6,5.9l0,0c-1.5,0.4-3.1-0.3-3.5-1.7l-0.7-2.6c-0.4-1.4,0.5-2.9,2.1-3.3l20.6-5.9l0,0
		c1.5-0.4,3.1,0.3,3.5,1.7l0.7,2.6C375.4,431,374.4,432.5,372.9,432.9z"/>
	<path class="st12" d="M373,433.4l-20.6,5.9c-1.8,0.5-3.7-0.4-4.1-2l-0.7-2.6c-0.5-1.6,0.6-3.4,2.4-3.9l20.6-5.9
		c1.8-0.5,3.7,0.4,4.1,2l0.7,2.6C375.9,431.1,374.9,432.9,373,433.4z M349.3,436.9c0.3,1.1,1.6,1.8,2.8,1.4l20.6-5.9
		c1.3-0.4,2-1.6,1.7-2.7l-0.7-2.6c-0.3-1.1-1.6-1.8-2.8-1.4l-20.6,5.9c-1.3,0.4-2,1.6-1.7,2.7L349.3,436.9z"/>
	<path class="st10" d="M370.2,431.8L370.2,431.8L370.2,431.8c1.2-0.3,2-1.5,1.7-2.6l0,0c-0.3-1.1-1.6-1.7-2.8-1.4s-2,1.5-1.7,2.7
		C367.7,431.5,368.9,432.1,370.2,431.8"/>
	<path class="st12" d="M370.3,432.2L370.3,432.2c-1.5,0.4-3.1-0.3-3.4-1.7c-0.4-1.4,0.5-2.8,2-3.2c1.5-0.4,3.1,0.3,3.4,1.7
		S371.8,431.8,370.3,432.2z M370,431.3L370,431.3c0.8-0.3,1.2-1.3,0.9-2.1s-1.3-1.2-2.1-0.9c-0.8,0.3-1.2,1.2-1,2
		C368.2,431.2,369.2,431.6,370,431.3L370,431.3z"/>
	<path class="st12" d="M358,437.2c0,0.3-0.1,0.6-0.4,0.6c-0.2,0-0.5-0.1-0.6-0.3l-2.2-7.6c0-0.3,0.1-0.6,0.4-0.6
		c0.2,0,0.5,0.1,0.6,0.3L358,437.2z"/>
	<path class="st12" d="M363.1,435.7c0,0.3-0.2,0.6-0.4,0.6c-0.2,0-0.5-0.1-0.6-0.3l-2.2-7.6c-0.1-0.3,0.1-0.6,0.4-0.6
		c0.3-0.1,0.5,0.1,0.6,0.3L363.1,435.7z"/>
	<path class="st15" d="M384.2,427.6l-5.6,1.6c-0.7,0.2-1.5-0.1-1.8-0.9l-0.3-1.1c-0.2-0.7,0.3-1.5,1-1.7l5.6-1.6"/>
	<path class="st12" d="M384.7,427.4c0.1,0.3-0.1,0.5-0.4,0.6l-5.5,1.6c-1.1,0.3-2.1-0.2-2.4-1.2l-0.3-1.1c-0.3-1,0.4-2,1.4-2.3
		l5.6-1.6l0,0c0.2-0.1,0.5,0,0.6,0.3c0.1,0.2,0,0.5-0.3,0.6c0,0,0,0-0.1,0l-5.6,1.6l0,0c-0.5,0.1-0.8,0.6-0.7,1.1l0.3,1.1
		c0.2,0.5,0.7,0.7,1.1,0.6l5.6-1.6l0,0C384.4,427,384.6,427.2,384.7,427.4L384.7,427.4z"/>
	<path class="st10" d="M384.2,427.6c1.1-0.3,1.8-1.4,1.5-2.4l0,0c-0.3-1-1.4-1.5-2.5-1.2c-1.1,0.3-1.8,1.4-1.5,2.4
		C382,427.3,383.1,427.9,384.2,427.6"/>
	<path class="st12" d="M384.4,428c-1.4,0.4-2.8-0.3-3.1-1.5c-0.4-1.2,0.5-2.6,1.9-3c1.4-0.4,2.8,0.3,3.1,1.5
		C386.6,426.3,385.7,427.6,384.4,428z M382.2,426.2c0.3,0.8,1.1,1.2,1.9,0.9l0,0c0.7-0.3,1.1-1.1,0.8-1.8c-0.3-0.7-1.1-1.1-1.8-0.8
		C382.4,424.8,382,425.5,382.2,426.2z"/>
</g>
<path class="st0" d="M333.7,84.7L87.9,226.6v283.8l245.8,141.9l245.7-141.9V226.6L333.7,84.7z M567,503.3L333.7,638L100.3,503.3
	V233.8L333.7,99L567,233.8V503.3z"/>
<path class="st1" d="M340.4,165.2c0.2,1.5,0.6,3.1,0.5,4.6c-0.4,3.5-2.3,6.1-5.3,7.8c-3.4,1.9-7.1,2.9-11.1,2.5
	c-1.7-4.6,0.1-9.8,4.8-12c3.3-1.5,7.2-1.9,10.8-2.8c0,0,0.2-0.1,0.2-0.1L340.4,165.2z"/>
<path class="st1" d="M324.7,181.3c0-1.5,0.3-3.1-0.1-4.6c-0.8-3.4-3-5.8-6.2-7.1c-3.7-1.5-7.4-2-11.3-1.1c-1.1,4.7,1.2,9.7,6.2,11.3
	c3.5,1.1,7.3,1,11,1.5c0,0,0.2,0.1,0.2,0.1L324.7,181.3z"/>
<path class="st1" d="M262.6,490.5c-2-6,3.9-12.6,10-11.2c0.7,0.2,1.5,1.6,1.5,2.5C274.2,487.1,269.6,490.6,262.6,490.5z"/>
<line class="st16" x1="203.5" y1="577.9" x2="470.8" y2="574.1"/>
<path class="st7" d="M333.6,25.5L36.6,197v343l297,171.5l297-171.5V197L333.6,25.5z M579.5,510.4L333.8,652.3L87.9,510.4V226.7
	l245.8-142l245.7,142V510.4z"/>
<path class="st17" d="M416.7,162.7c-1.9,3.9-4.5,7.3-7.5,10.3c-4.2,4.2-9,7.8-14.1,10.9c-0.4,0.3-0.8,0.5-1.3,0.8
	c-0.3,0.2-0.6,0.2-1,0c-4.1-2.5-8.1-5.3-11.8-8.4c-3.5-3-6.6-6.2-9.1-10.1c-1.9-2.9-3.3-6-3.8-9.4c-0.6-4.1,0-8,2.5-11.3
	c2.3-3.1,5.5-5,9.3-5.6c3-0.4,5.9,0.1,8.6,1.5c1.9,1,3.4,2.5,4.4,4.5c0.1,0.2,0.2,0.3,0.3,0.6c0.3-0.5,0.5-0.9,0.7-1.2
	c1.9-3,4.6-4.6,8-5.2c4.2-0.7,8,0.2,11.3,2.8c3,2.3,4.7,5.4,5.2,9.2C419.1,155.7,418.4,159.3,416.7,162.7z"/>
<path class="st17" d="M157.1,255.9c-1.9,3.9-4.5,7.3-7.5,10.3c-4.2,4.2-9,7.8-14.1,10.9c-0.4,0.3-0.8,0.5-1.3,0.8
	c-0.3,0.2-0.6,0.2-1,0c-4.1-2.5-8.1-5.3-11.8-8.4c-3.5-3-6.6-6.2-9.1-10.1c-1.9-2.9-3.3-6-3.8-9.4c-0.6-4.1,0-8,2.5-11.3
	c2.3-3.1,5.5-5,9.3-5.6c3-0.4,5.9,0.1,8.6,1.5c1.9,1,3.4,2.5,4.4,4.5c0.1,0.2,0.2,0.3,0.3,0.6c0.3-0.5,0.5-0.9,0.7-1.2
	c1.9-3,4.6-4.6,8-5.2c4.2-0.7,8,0.2,11.3,2.8c3,2.3,4.7,5.4,5.2,9.2C159.5,248.9,158.8,252.5,157.1,255.9z"/>
<path class="st17" d="M515,233.3c-1.9,3.9-4.5,7.3-7.5,10.3c-4.2,4.2-9,7.8-14.1,10.9c-0.4,0.3-0.8,0.5-1.3,0.8
	c-0.3,0.2-0.6,0.2-1,0c-4.1-2.5-8.1-5.3-11.8-8.4c-3.5-3-6.6-6.2-9.1-10.1c-1.9-2.9-3.3-6-3.8-9.4c-0.6-4.1,0-8,2.5-11.3
	c2.3-3.1,5.5-5,9.3-5.6c3-0.4,5.9,0.1,8.6,1.5c1.9,1,3.4,2.5,4.4,4.5c0.1,0.2,0.2,0.3,0.3,0.6c0.3-0.5,0.5-0.9,0.7-1.2
	c1.9-3,4.6-4.6,8-5.2c4.2-0.7,8,0.2,11.3,2.8c3,2.3,4.7,5.4,5.2,9.2C517.4,226.3,516.7,229.9,515,233.3z"/>
<path class="st17" d="M546.4,377.8c-1.9,3.9-4.5,7.3-7.5,10.3c-4.2,4.2-9,7.8-14.1,10.9c-0.4,0.3-0.8,0.5-1.3,0.8
	c-0.3,0.2-0.6,0.2-1,0c-4.1-2.5-8.1-5.3-11.8-8.4c-3.5-3-6.6-6.2-9.1-10.1c-1.9-2.9-3.3-6-3.8-9.4c-0.6-4.1,0-8,2.5-11.3
	c2.3-3.1,5.5-5,9.3-5.6c3-0.4,5.9,0.1,8.6,1.5c1.9,1,3.4,2.5,4.4,4.5c0.1,0.2,0.2,0.3,0.3,0.6c0.3-0.5,0.5-0.9,0.7-1.2
	c1.9-3,4.6-4.6,8-5.2c4.2-0.7,8,0.2,11.3,2.8c3,2.3,4.7,5.4,5.2,9.2C548.8,370.8,548.1,374.3,546.4,377.8z"/>
<path class="st17" d="M145.8,385.3c-1.9,3.9-4.5,7.3-7.5,10.3c-4.2,4.2-9,7.8-14.1,10.9c-0.4,0.3-0.8,0.5-1.3,0.8
	c-0.3,0.2-0.6,0.2-1,0c-4.1-2.5-8.1-5.3-11.8-8.4c-3.5-3-6.6-6.2-9.1-10.1c-1.9-2.9-3.3-6-3.8-9.4c-0.6-4.1,0-8,2.5-11.3
	c2.3-3.1,5.5-5,9.3-5.6c3-0.4,5.9,0.1,8.6,1.5c1.9,1,3.4,2.5,4.4,4.5c0.1,0.2,0.2,0.3,0.3,0.6c0.3-0.5,0.5-0.9,0.7-1.2
	c1.9-3,4.6-4.6,8-5.2c4.2-0.7,8,0.2,11.3,2.8c3,2.3,4.7,5.4,5.2,9.2C148.2,378.3,147.4,381.9,145.8,385.3z"/>
<path class="st17" d="M281.3,386.6c-1.9,3.9-4.5,7.3-7.5,10.3c-4.2,4.2-9,7.8-14.1,10.9c-0.4,0.3-0.8,0.5-1.3,0.8
	c-0.3,0.2-0.6,0.2-1,0c-4.1-2.5-8.1-5.3-11.8-8.4c-3.5-3-6.6-6.2-9.1-10.1c-1.9-2.9-3.3-6-3.8-9.4c-0.6-4.1,0-8,2.5-11.3
	c2.3-3.1,5.5-5,9.3-5.6c3-0.4,5.9,0.1,8.6,1.5c1.9,1,3.4,2.5,4.4,4.5c0.1,0.2,0.2,0.3,0.3,0.6c0.3-0.5,0.5-0.9,0.7-1.2
	c1.9-3,4.6-4.6,8-5.2c4.2-0.7,8,0.2,11.3,2.8c3,2.3,4.7,5.4,5.2,9.2C283.7,379.6,282.9,383.2,281.3,386.6z"/>
<path class="st17" d="M316.8,255.9c-1.9,3.9-4.5,7.3-7.5,10.3c-4.2,4.2-9,7.8-14.1,10.9c-0.4,0.3-0.8,0.5-1.3,0.8
	c-0.3,0.2-0.6,0.2-1,0c-4.1-2.5-8.1-5.3-11.8-8.4c-3.5-3-6.6-6.2-9.1-10.1c-1.9-2.9-3.3-6-3.8-9.4c-0.6-4.1,0-8,2.5-11.3
	c2.3-3.1,5.5-5,9.3-5.6c3-0.4,5.9,0.1,8.6,1.5c1.9,1,3.4,2.5,4.4,4.5c0.1,0.2,0.2,0.3,0.3,0.6c0.3-0.5,0.5-0.9,0.7-1.2
	c1.9-3,4.6-4.6,8-5.2c4.2-0.7,8,0.2,11.3,2.8c3,2.3,4.7,5.4,5.2,9.2C319.2,248.9,318.5,252.5,316.8,255.9z"/>
<path class="st17" d="M415.9,543.1c-1.9,3.9-4.5,7.3-7.5,10.3c-4.2,4.2-9,7.8-14.1,10.9c-0.4,0.3-0.8,0.5-1.3,0.8
	c-0.3,0.2-0.6,0.2-1,0c-4.1-2.5-8.1-5.3-11.8-8.4c-3.5-3-6.6-6.2-9.1-10.1c-1.9-2.9-3.3-6-3.8-9.4c-0.6-4.1,0-8,2.5-11.3
	c2.3-3.1,5.5-5,9.3-5.6c3-0.4,5.9,0.1,8.6,1.5c1.9,1,3.4,2.5,4.4,4.5c0.1,0.2,0.2,0.3,0.3,0.6c0.3-0.5,0.5-0.9,0.7-1.2
	c1.9-3,4.6-4.6,8-5.2c4.2-0.7,8,0.2,11.3,2.8c3,2.3,4.7,5.4,5.2,9.2C418.3,536,417.5,539.6,415.9,543.1z"/>
<path class="st17" d="M230.2,520.5c-1.9,3.9-4.5,7.3-7.5,10.3c-4.2,4.2-9,7.8-14.1,10.9c-0.4,0.3-0.8,0.5-1.3,0.8
	c-0.3,0.2-0.6,0.2-1,0c-4.1-2.5-8.1-5.3-11.8-8.4c-3.5-3-6.6-6.2-9.1-10.1c-1.9-2.9-3.3-6-3.8-9.4c-0.6-4.1,0-8,2.5-11.3
	c2.3-3.1,5.5-5,9.3-5.6c3-0.4,5.9,0.1,8.6,1.5c1.9,1,3.4,2.5,4.4,4.5c0.1,0.2,0.2,0.3,0.3,0.6c0.3-0.5,0.5-0.9,0.7-1.2
	c1.9-3,4.6-4.6,8-5.2c4.2-0.7,8,0.2,11.3,2.8c3,2.3,4.7,5.4,5.2,9.2C232.6,513.5,231.8,517.1,230.2,520.5z"/>
<path class="st17" d="M205.6,426.3c-1.9,3.9-4.5,7.3-7.5,10.3c-4.2,4.2-9,7.8-14.1,10.9c-0.4,0.3-0.8,0.5-1.3,0.8
	c-0.3,0.2-0.6,0.2-1,0c-4.1-2.5-8.1-5.3-11.8-8.4c-3.5-3-6.6-6.2-9.1-10.1c-1.9-2.9-3.3-6-3.8-9.4c-0.6-4.1,0-8,2.5-11.3
	c2.3-3.1,5.5-5,9.3-5.6c3-0.4,5.9,0.1,8.6,1.5c1.9,1,3.4,2.5,4.4,4.5c0.1,0.2,0.2,0.3,0.3,0.6c0.3-0.5,0.5-0.9,0.7-1.2
	c1.9-3,4.6-4.6,8-5.2c4.2-0.7,8,0.2,11.3,2.8c3,2.3,4.7,5.4,5.2,9.2C208,419.2,207.2,422.8,205.6,426.3z"/>
<path class="st17" d="M489.6,419.9c-1.9,3.9-4.5,7.3-7.5,10.3c-4.2,4.2-9,7.8-14.1,10.9c-0.4,0.3-0.8,0.5-1.3,0.8
	c-0.3,0.2-0.6,0.2-1,0c-4.1-2.5-8.1-5.3-11.8-8.4c-3.5-3-6.6-6.2-9.1-10.1c-1.9-2.9-3.3-6-3.8-9.4c-0.6-4.1,0-8,2.5-11.3
	c2.3-3.1,5.5-5,9.3-5.6c3-0.4,5.9,0.1,8.6,1.5c1.9,1,3.4,2.5,4.4,4.5c0.1,0.2,0.2,0.3,0.3,0.6c0.3-0.5,0.5-0.9,0.7-1.2
	c1.9-3,4.6-4.6,8-5.2c4.2-0.7,8,0.2,11.3,2.8c3,2.3,4.7,5.4,5.2,9.2C492,412.9,491.3,416.5,489.6,419.9z"/>
<path class="st17" d="M540.4,515.3c-1.9,3.9-4.5,7.3-7.5,10.3c-4.2,4.2-9,7.8-14.1,10.9c-0.4,0.3-0.8,0.5-1.3,0.8
	c-0.3,0.2-0.6,0.2-1,0c-4.1-2.5-8.1-5.3-11.8-8.4c-3.5-3-6.6-6.2-9.1-10.1c-1.9-2.9-3.3-6-3.8-9.4c-0.6-4.1,0-8,2.5-11.3
	c2.3-3.1,5.5-5,9.3-5.6c3-0.4,5.9,0.1,8.6,1.5c1.9,1,3.4,2.5,4.4,4.5c0.1,0.2,0.2,0.3,0.3,0.6c0.3-0.5,0.5-0.9,0.7-1.2
	c1.9-3,4.6-4.6,8-5.2c4.2-0.7,8,0.2,11.3,2.8c3,2.3,4.7,5.4,5.2,9.2C542.8,508.2,542.1,511.8,540.4,515.3z"/>
<path class="st17" d="M510.2,311.7c-1.9,3.9-4.5,7.3-7.5,10.3c-4.2,4.2-9,7.8-14.1,10.9c-0.4,0.3-0.8,0.5-1.3,0.8
	c-0.3,0.2-0.6,0.2-1,0c-4.1-2.5-8.1-5.3-11.8-8.4c-3.5-3-6.6-6.2-9.1-10.1c-1.9-2.9-3.3-6-3.8-9.4c-0.6-4.1,0-8,2.5-11.3
	c2.3-3.1,5.5-5,9.3-5.6c3-0.4,5.9,0.1,8.6,1.5c1.9,1,3.4,2.5,4.4,4.5c0.1,0.2,0.2,0.3,0.3,0.6c0.3-0.5,0.5-0.9,0.7-1.2
	c1.9-3,4.6-4.6,8-5.2c4.2-0.7,8,0.2,11.3,2.8c3,2.3,4.7,5.4,5.2,9.2C512.6,304.7,511.8,308.3,510.2,311.7z"/>
<path class="st17" d="M320.8,142c-1.9,3.9-4.5,7.3-7.5,10.3c-4.2,4.2-9,7.8-14.1,10.9c-0.4,0.3-0.8,0.5-1.3,0.8
	c-0.3,0.2-0.6,0.2-1,0c-4.1-2.5-8.1-5.3-11.8-8.4c-3.5-3-6.6-6.2-9.1-10.1c-1.9-2.9-3.3-6-3.8-9.4c-0.6-4.1,0-8,2.5-11.3
	c2.3-3.1,5.5-5,9.3-5.6c3-0.4,5.9,0.1,8.6,1.5c1.9,1,3.4,2.5,4.4,4.5c0.1,0.2,0.2,0.3,0.3,0.6c0.3-0.5,0.5-0.9,0.7-1.2
	c1.9-3,4.6-4.6,8-5.2c4.2-0.7,8,0.2,11.3,2.8c3,2.3,4.7,5.4,5.2,9.2C323.2,135,322.4,138.6,320.8,142z"/>
<path class="st12" d="M262.4,656.9c-1.8-7.5-3.6-14.8-5.5-22.3c-2.6,4.5-5.1,8.8-7.6,13.2c-1-0.6-1.9-1.1-2.8-1.6
	c3.8-6.7,7.7-13.3,11.6-20.1c1.8,7.5,3.6,14.9,5.5,22.4c2.6-4.5,5.1-8.8,7.6-13.2c1,0.6,1.9,1.1,2.8,1.6
	C270.2,643.5,266.4,650.1,262.4,656.9z"/>
<path class="st12" d="M145.1,567.1c-1,0.2-2,0.5-3,0.7c-0.2-0.8-0.4-1.6-0.7-2.3c-2.1-5.8-9.6-7.1-13.6-2.4c-3.4,4-2.7,9.5,1.6,12.4
	c3,2.1,7.5,0.8,8.6-1.5c-1.5-0.9-3-1.7-4.6-2.6c0.5-0.9,1-1.8,1.5-2.7c1.3,0.8,2.6,1.5,3.9,2.2c1.3,0.7,2.5,1.5,3.8,2.2
	c-2.5,6.1-9,8.3-14.4,5.3c-4.2-2.3-6.5-7.1-5.7-11.7c0.9-4.8,4.7-8.7,9.5-9.4C138.4,556.4,144.3,560.7,145.1,567.1z"/>
<path class="st12" d="M195.7,611.2c-0.5,0.9-1,1.6-1.4,2.4c-0.4,0.8-0.9,0.9-1.7,0.8c-7-0.8-11.7-7.1-10.2-13.8
	c1-4.4,4.7-7.9,9.3-8.8c4.3-0.8,8.9,1.3,11.4,5c0.4,0.6,0.4,1,0,1.5c-0.5,0.7-0.9,1.5-1.5,2.5c-1.3-3-3.2-5.2-6.3-5.9
	c-1.8-0.4-3.6-0.1-5.2,0.7c-3.5,1.7-5.4,5.8-4.5,9.5C186.8,609.4,189.8,611.2,195.7,611.2z"/>
<path class="st12" d="M175.9,583.7c-3.2,5.5-6.2,10.8-9.4,16.2c-1-0.6-1.8-1.1-2.8-1.6c3.1-5.4,6.2-10.7,9.4-16.2
	c-1.5-0.9-2.9-1.7-4.3-2.5c0.5-0.9,1-1.7,1.5-2.6c3.8,2.2,7.6,4.4,11.5,6.6c-0.5,0.8-0.9,1.6-1.5,2.6
	C178.8,585.4,177.4,584.6,175.9,583.7z"/>
<path class="st12" d="M158.3,570.1c0.9,0.5,1.8,1,2.7,1.6c-3.6,6.3-7.3,12.6-10.9,18.9c-0.9-0.5-1.7-1-2.7-1.6
	C151,582.7,154.6,576.4,158.3,570.1z"/>
<path class="st12" d="M235.2,639.7c-0.9-0.5-1.8-1-2.7-1.5c3.6-6.3,7.2-12.5,10.9-18.9c0.9,0.5,1.7,1,2.7,1.5
	C242.5,627.1,238.9,633.3,235.2,639.7z"/>
<circle class="st18" cx="221.1" cy="614.1" r="11.5"/>
</svg>
